<?xml version="1.0" encoding="utf-8"?>
<!-- Generator: Adobe Illustrator 22.1.0, SVG Export Plug-In . SVG Version: 6.00 Build 0)  -->
<svg version="1.1" id="Layer_1" xmlns="http://www.w3.org/2000/svg" xmlns:xlink="http://www.w3.org/1999/xlink" x="0px" y="0px"
	 viewBox="0 0 2850 1800" enable-background="new 0 0 2850 1800" xml:space="preserve">
<linearGradient id="SVGID_1_" gradientUnits="userSpaceOnUse" x1="1425" y1="2.9963" x2="1425" y2="1297.8647">
	<stop  offset="0.0043" style="stop-color:#991A09"/>
	<stop  offset="1" style="stop-color:#FFB74A"/>
</linearGradient>
<rect fill="url(#SVGID_1_)" width="2850" height="1800"/>
<g opacity="0.4">
	<polygon opacity="0.4" fill="#FFFFFF" points="2715.428,988.108 2698.033,973.672 2679.852,987.322 2694.288,969.927 
		2680.638,951.746 2698.657,965.557 2716.214,952.532 2702.402,969.303 	"/>
	<polygon opacity="0.6" fill="#FFFFFF" points="2163.237,654.421 2149.867,643.327 2135.894,653.817 2146.989,640.448 
		2136.498,626.475 2150.347,637.09 2163.841,627.079 2153.226,639.968 	"/>
	<polygon opacity="0.6" fill="#FFFFFF" points="2688.812,619.285 2678.295,610.557 2667.304,618.81 2676.031,608.293 
		2667.779,597.301 2678.673,605.651 2689.288,597.776 2680.937,607.916 	"/>
	<polygon opacity="0.6" fill="#FFFFFF" points="2172.159,931.737 2164.74,925.58 2156.985,931.402 2163.142,923.982 
		2157.32,916.227 2165.006,922.119 2172.495,916.563 2166.604,923.716 	"/>
	<polygon opacity="0.6" fill="#FFFFFF" points="2346.023,1033.906 2332.653,1022.811 2318.68,1033.302 2329.775,1019.933 
		2319.284,1005.959 2333.133,1016.575 2346.627,1006.564 2336.012,1019.453 	"/>
	<polygon opacity="0.4" fill="#FFFFFF" points="2336.907,405.909 2323.538,394.814 2309.565,405.305 2320.66,391.936 
		2310.169,377.962 2324.018,388.578 2337.512,378.566 2326.896,391.456 	"/>
	<polygon opacity="0.93" fill="#FFFFFF" points="2346,652.504 2342.728,649.788 2339.308,652.356 2342.024,649.084 
		2339.456,645.664 2342.846,648.262 2346.148,645.811 2343.55,648.966 	"/>
	<polygon opacity="0.93" fill="#FFFFFF" points="2630.434,763.125 2624.157,757.915 2617.596,762.841 2622.805,756.564 
		2617.879,750.003 2624.382,754.987 2630.718,750.286 2625.734,756.339 	"/>
	<polygon opacity="0.93" fill="#FFFFFF" points="2283.775,826.452 2280.503,823.736 2277.083,826.304 2279.798,823.032 
		2277.231,819.612 2280.62,822.21 2283.923,819.76 2281.325,822.914 	"/>
	<polygon opacity="0.93" fill="#FFFFFF" points="2475.401,1241.524 2472.129,1238.808 2468.709,1241.376 2471.424,1238.104 
		2468.857,1234.684 2472.246,1237.282 2475.549,1234.831 2472.951,1237.986 	"/>
	<polygon opacity="0.93" fill="#FFFFFF" points="2490.459,867.746 2485.564,863.684 2480.448,867.525 2484.51,862.63 
		2480.669,857.514 2485.74,861.4 2490.68,857.735 2486.793,862.454 	"/>
	<polygon opacity="0.93" fill="#FFFFFF" points="2603.828,213.837 2595.387,206.832 2586.565,213.456 2593.57,205.015 
		2586.947,196.193 2595.69,202.895 2604.209,196.574 2597.508,204.712 	"/>
	<polygon opacity="0.4" fill="#FFFFFF" points="2050.04,318.478 2032.646,304.042 2014.465,317.692 2028.9,300.297 
		2015.251,282.116 2033.27,295.927 2050.826,282.902 2037.015,299.673 	"/>
	<polygon opacity="0.6" fill="#FFFFFF" points="1024.694,964.257 1011.325,953.162 997.351,963.653 1008.446,950.283 
		997.956,936.31 1011.805,946.925 1025.298,936.914 1014.683,949.804 	"/>
	<polygon opacity="0.6" fill="#FFFFFF" points="1493.425,161.655 1482.908,152.927 1471.916,161.18 1480.644,150.663 
		1472.391,139.671 1483.286,148.021 1493.9,140.146 1485.55,150.285 	"/>
	<polygon opacity="0.6" fill="#FFFFFF" points="1693.206,598.072 1682.689,589.344 1671.697,597.596 1680.425,587.08 
		1672.172,576.088 1683.067,584.438 1693.681,576.563 1685.331,586.702 	"/>
	<polygon opacity="0.6" fill="#FFFFFF" points="1485.379,267.721 1496.474,254.352 1485.983,240.379 1499.352,251.474 
		1513.326,240.983 1502.71,254.832 1512.722,268.326 1499.832,257.71 	"/>
	<polygon opacity="0.6" fill="#FFFFFF" points="1935.901,834.502 1922.531,823.407 1908.558,833.898 1919.653,820.529 
		1909.162,806.555 1923.011,817.171 1936.505,807.159 1925.89,820.049 	"/>
	<polygon opacity="0.4" fill="#FFFFFF" points="1198.365,715.745 1184.995,704.65 1171.022,715.14 1182.117,701.771 
		1171.626,687.798 1185.475,698.413 1198.969,688.402 1188.354,701.291 	"/>
	<polygon opacity="0.93" fill="#FFFFFF" points="1150.613,194.873 1147.341,192.158 1143.921,194.726 1146.636,191.453 
		1144.069,188.034 1147.458,190.632 1150.761,188.181 1148.163,191.336 	"/>
	<polygon opacity="0.93" fill="#FFFFFF" points="1840.596,205.218 1834.318,200.008 1827.757,204.934 1832.967,198.657 
		1828.041,192.096 1834.544,197.08 1840.88,192.379 1835.895,198.431 	"/>
	<polygon opacity="0.93" fill="#FFFFFF" points="1618.387,156.822 1615.115,154.106 1611.695,156.674 1614.411,153.402 
		1611.843,149.982 1615.233,152.58 1618.535,150.13 1615.937,153.284 	"/>
	<polygon opacity="0.93" fill="#FFFFFF" points="1859.511,519.567 1856.239,516.852 1852.819,519.42 1855.534,516.148 
		1852.967,512.728 1856.356,515.326 1859.659,512.875 1857.061,516.03 	"/>
	<polygon opacity="0.93" fill="#FFFFFF" points="2252.164,292.868 2247.269,288.806 2242.153,292.647 2246.215,287.752 
		2242.374,282.636 2247.445,286.522 2252.385,282.857 2248.498,287.576 	"/>
	<polygon opacity="0.93" fill="#FFFFFF" points="2282.44,145.207 2274,138.202 2265.178,144.825 2272.183,136.385 2265.559,127.563 
		2274.303,134.265 2282.822,127.944 2276.12,136.082 	"/>
	<polygon opacity="0.6" fill="#FFFFFF" points="2188.793,1474.895 2190.058,1488.502 2203.666,1490.44 2190.058,1491.705 
		2188.121,1505.312 2186.322,1491.705 2173.248,1489.767 2186.322,1488.502 	"/>
	<polygon opacity="0.4" fill="#FFFFFF" points="1879.755,1158.682 1878.147,1141.383 1860.848,1138.92 1878.147,1137.312 
		1880.609,1120.013 1882.896,1137.312 1899.516,1139.775 1882.896,1141.383 	"/>
	<polygon opacity="0.93" fill="#FFFFFF" points="2331.783,1414.464 2332.538,1422.586 2340.66,1423.743 2332.538,1424.498 
		2331.381,1432.62 2330.308,1424.498 2322.504,1423.341 2330.308,1422.586 	"/>
	<polygon opacity="0.93" fill="#FFFFFF" points="2143.917,1153.467 2144.933,1164.388 2155.854,1165.943 2144.933,1166.958 
		2143.378,1177.88 2141.934,1166.958 2131.441,1165.403 2141.934,1164.388 	"/>
	<polygon opacity="0.93" fill="#FFFFFF" points="1649.709,933.507 1644.814,929.445 1639.698,933.286 1643.76,928.391 
		1639.919,923.274 1644.99,927.161 1649.93,923.496 1646.043,928.215 	"/>
	<polygon opacity="0.93" fill="#FFFFFF" points="1472.096,751.904 1463.656,744.9 1454.833,751.523 1461.838,743.082 
		1455.215,734.26 1463.958,740.962 1472.478,734.642 1465.776,742.78 	"/>
	<polygon opacity="0.4" fill="#FFFFFF" points="901.378,665.711 915.813,648.316 902.164,630.135 919.559,644.571 937.74,630.921 
		923.928,648.94 936.954,666.497 920.183,652.685 	"/>
	<polygon opacity="0.6" fill="#FFFFFF" points="384.763,332.81 371.393,321.716 357.42,332.206 368.515,318.837 358.024,304.864 
		371.873,315.479 385.367,305.468 374.751,318.357 	"/>
	<polygon opacity="0.6" fill="#FFFFFF" points="910.338,297.674 899.821,288.946 888.829,297.199 897.557,286.682 889.305,275.69 
		900.199,284.04 910.813,276.165 902.463,286.305 	"/>
	<polygon opacity="0.6" fill="#FFFFFF" points="393.685,610.126 386.266,603.969 378.511,609.791 384.668,602.371 378.846,594.616 
		386.532,600.507 394.02,594.952 388.129,602.105 	"/>
	<polygon opacity="0.6" fill="#FFFFFF" points="567.549,712.295 554.179,701.201 540.206,711.691 551.301,698.322 540.81,684.348 
		554.659,694.964 568.153,684.953 557.537,697.842 	"/>
	<polygon opacity="0.4" fill="#FFFFFF" points="558.433,84.298 545.064,73.203 531.09,83.694 542.185,70.325 531.695,56.351 
		545.544,66.967 559.037,56.955 548.422,69.845 	"/>
	<polygon opacity="0.93" fill="#FFFFFF" points="567.526,330.893 564.254,328.177 560.834,330.745 563.549,327.473 560.982,324.053 
		564.371,326.651 567.674,324.2 565.076,327.355 	"/>
	<polygon opacity="0.93" fill="#FFFFFF" points="851.96,441.514 845.682,436.304 839.122,441.23 844.331,434.953 839.405,428.392 
		845.908,433.376 852.244,428.675 847.259,434.728 	"/>
	<polygon opacity="0.93" fill="#FFFFFF" points="505.301,504.841 502.029,502.125 498.609,504.693 501.324,501.421 498.757,498.001 
		502.146,500.599 505.449,498.149 502.851,501.303 	"/>
	<polygon opacity="0.93" fill="#FFFFFF" points="696.927,919.912 693.655,917.197 690.235,919.765 692.95,916.493 690.382,913.073 
		693.772,915.671 697.075,913.22 694.477,916.375 	"/>
	<polygon opacity="0.93" fill="#FFFFFF" points="711.985,546.135 707.09,542.073 701.973,545.914 706.036,541.019 702.195,535.903 
		707.265,539.789 712.206,536.124 708.319,540.843 	"/>
	<polygon opacity="0.93" fill="#FFFFFF" points="1169.354,493.226 1160.913,486.221 1152.091,492.845 1159.096,484.404 
		1152.473,475.582 1161.216,482.284 1169.735,475.963 1163.033,484.101 	"/>
	<polygon opacity="0.4" fill="#FFFFFF" points="1325.372,47.237 1310.937,64.632 1324.586,82.813 1307.192,68.377 1289.011,82.027 
		1302.822,64.008 1289.797,46.451 1306.567,60.263 	"/>
	<polygon opacity="0.6" fill="#FFFFFF" points="1346.13,915.526 1357.224,902.157 1346.734,888.183 1360.103,899.278 
		1374.076,888.787 1363.461,902.637 1373.472,916.13 1360.583,905.515 	"/>
	<polygon opacity="0.6" fill="#FFFFFF" points="109.224,307.238 100.496,317.755 108.748,328.747 98.232,320.019 87.24,328.272 
		95.59,317.378 87.715,306.763 97.854,315.113 	"/>
	<polygon opacity="0.6" fill="#FFFFFF" points="730.99,1002.502 722.263,1013.019 730.515,1024.011 719.998,1015.283 
		709.007,1023.536 717.357,1012.641 709.482,1002.027 719.621,1010.377 	"/>
	<polygon opacity="0.6" fill="#FFFFFF" points="1617.895,712.941 1606.8,726.311 1617.29,740.284 1603.921,729.189 1589.948,739.68 
		1600.563,725.831 1590.552,712.337 1603.441,722.953 	"/>
	<polygon opacity="0.6" fill="#FFFFFF" points="157.427,512.891 144.057,501.796 130.084,512.287 141.179,498.918 130.688,484.944 
		144.537,495.56 158.031,485.548 147.415,498.438 	"/>
	<polygon opacity="0.4" fill="#FFFFFF" points="1296.753,408.031 1283.384,396.936 1269.411,407.426 1280.505,394.057 
		1270.015,380.084 1283.864,390.699 1297.357,380.688 1286.742,393.577 	"/>
	<polygon opacity="0.93" fill="#FFFFFF" points="1305.846,654.625 1302.574,651.909 1299.154,654.477 1301.87,651.205 
		1299.302,647.785 1302.692,650.383 1305.994,647.933 1303.396,651.087 	"/>
	<polygon opacity="0.93" fill="#FFFFFF" points="1554.786,385.067 1549.577,391.345 1554.503,397.906 1548.225,392.696 
		1541.664,397.622 1546.649,391.119 1541.948,384.784 1548,389.768 	"/>
	<polygon opacity="0.93" fill="#FFFFFF" points="1506.391,607.276 1503.675,610.548 1506.243,613.968 1502.971,611.252 
		1499.551,613.82 1502.149,610.43 1499.698,607.128 1502.853,609.726 	"/>
	<polygon opacity="0.93" fill="#FFFFFF" points="2566.096,477.904 2557.656,470.9 2548.833,477.523 2555.838,469.082 
		2549.215,460.26 2557.958,466.962 2566.478,460.642 2559.776,468.78 	"/>
	<polygon opacity="0.6" fill="#FFFFFF" points="2711.895,438.941 2700.8,452.311 2711.29,466.284 2697.921,455.189 2683.948,465.68 
		2694.563,451.831 2684.552,438.337 2697.441,448.953 	"/>
	<polygon opacity="0.93" fill="#FFFFFF" points="2600.391,333.276 2597.675,336.548 2600.243,339.968 2596.971,337.252 
		2593.551,339.82 2596.149,336.43 2593.698,333.128 2596.853,335.726 	"/>
	<polygon opacity="0.93" fill="#FFFFFF" points="2766.391,118.276 2763.675,121.548 2766.243,124.968 2762.971,122.252 
		2759.551,124.82 2762.149,121.43 2759.698,118.128 2762.853,120.726 	"/>
	<polygon opacity="0.93" fill="#FFFFFF" points="2036.391,94.276 2033.675,97.548 2036.243,100.968 2032.971,98.252 
		2029.551,100.82 2032.149,97.43 2029.698,94.128 2032.853,96.726 	"/>
	<polygon opacity="0.93" fill="#FFFFFF" points="2167.391,490.276 2164.675,493.548 2167.243,496.968 2163.971,494.252 
		2160.551,496.82 2163.149,493.43 2160.698,490.128 2163.853,492.726 	"/>
	<polygon opacity="0.93" fill="#FFFFFF" points="1799.391,698.276 1796.675,701.548 1799.243,704.968 1795.971,702.252 
		1792.551,704.82 1795.149,701.43 1792.698,698.128 1795.853,700.726 	"/>
	<polygon opacity="0.93" fill="#FFFFFF" points="2134.391,784.276 2131.675,787.548 2134.243,790.968 2130.971,788.252 
		2127.551,790.82 2130.149,787.43 2127.698,784.128 2130.853,786.726 	"/>
	<polygon opacity="0.93" fill="#FFFFFF" points="2692.391,1273.276 2689.675,1276.548 2692.243,1279.968 2688.971,1277.252 
		2685.551,1279.82 2688.149,1276.43 2685.698,1273.128 2688.853,1275.726 	"/>
	<polygon opacity="0.93" fill="#FFFFFF" points="1558.391,1062.276 1555.675,1065.548 1558.243,1068.968 1554.971,1066.252 
		1551.551,1068.82 1554.149,1065.43 1551.698,1062.128 1554.853,1064.726 	"/>
	<polygon opacity="0.93" fill="#FFFFFF" points="847.869,968.661 843.635,969.055 843.032,973.289 842.639,969.055 838.405,968.452 
		842.639,967.893 843.242,963.825 843.635,967.893 	"/>
	<polygon opacity="0.93" fill="#FFFFFF" points="762.69,132.257 757.795,128.195 752.678,132.036 756.741,127.141 752.899,122.025 
		757.97,125.911 762.911,122.246 759.024,126.965 	"/>
	<polygon opacity="0.93" fill="#FFFFFF" points="304.776,48.223 297.771,56.663 304.394,65.485 295.954,58.481 287.132,65.104 
		293.833,56.36 287.513,47.841 295.651,54.543 	"/>
	<polygon opacity="0.6" fill="#FFFFFF" points="473.639,1276.14 484.156,1284.867 495.147,1276.615 486.42,1287.132 
		494.672,1298.123 483.778,1289.773 473.164,1297.648 481.514,1287.509 	"/>
	<polygon opacity="0.4" fill="#FFFFFF" points="132.062,743.288 143.157,729.919 132.666,715.946 146.035,727.041 160.009,716.55 
		149.393,730.399 159.404,743.893 146.515,733.277 	"/>
	<polygon opacity="0.93" fill="#FFFFFF" points="532.017,1132.3 538.294,1137.509 544.856,1132.583 539.646,1138.861 
		544.572,1145.422 538.069,1140.438 531.733,1145.138 536.718,1139.086 	"/>
	<polygon opacity="0.93" fill="#FFFFFF" points="322.54,926.391 315.536,934.832 322.159,943.654 313.718,936.649 304.896,943.273 
		311.598,934.529 305.278,926.01 313.415,932.712 	"/>
	<polygon opacity="0.93" fill="#FFFFFF" points="1735.235,384.896 1730.34,380.834 1725.223,384.675 1729.286,379.78 
		1725.444,374.663 1730.515,378.55 1735.456,374.885 1731.569,379.604 	"/>
	<polygon opacity="0.93" fill="#FFFFFF" points="99.771,592.5 88.849,593.515 87.295,604.436 86.279,593.515 75.358,591.96 
		86.279,590.516 87.834,580.023 88.849,590.516 	"/>
</g>
<g>
	<path opacity="0.1" fill="#E5EDD4" d="M1194.821,1800h401.239c401.217-91.2,700.696-450.067,700.696-878.892
		c0-497.783-403.533-901.315-901.315-901.315S494.125,423.326,494.125,921.108C494.125,1349.933,793.604,1708.8,1194.821,1800z"/>
	<circle opacity="0.1" fill="#E5EDD4" cx="1395.44" cy="921.108" r="712.627"/>
	<circle opacity="0.1" fill="#E5EDD4" cx="1395.44" cy="921.108" r="542.472"/>
	<g>
		<circle fill="#FFFFFF" cx="1395.44" cy="921.108" r="428.09"/>
	</g>
	<path fill="#EFEFF0" d="M1443.295,1223.643c-236.428,0-428.09-191.662-428.09-428.09c0-30.093,3.112-59.458,9.019-87.798
		c-36.177,62.81-56.874,135.665-56.874,213.353c0,236.428,191.663,428.09,428.09,428.09c206.335,0,378.568-145.98,419.071-340.292
		C1740.591,1137.244,1602.033,1223.643,1443.295,1223.643z"/>
	<g>
		<g>
			<path fill="#F6F6F6" d="M1587.476,891.808c-18.92-14.204-45.316-17.328-67.421-8.899c-19.905,7.59-35.869,23.46-55.925,30.641
				c-11.216,4.016-23.875,5.434-33.529,12.049c-1.96,1.343-3.578,3.127-4.774,5.179l0,0c-0.954,1.637-1.631,3.424-1.96,5.29
				c-6.901,39.231,21.663,80.483,60.062,91.907c39.355,11.709,84.08-5.342,110.22-37.006c8.783-10.639,15.846-23.03,18.356-36.596
				C1616.811,931.111,1606.396,906.012,1587.476,891.808z"/>
		</g>
		<g>
			<path fill="#F6F6F6" d="M1473.084,646.861c10.232,10.246,25.953,14.426,40.077,11.235c12.717-2.874,23.765-11.105,36.539-13.717
				c7.144-1.461,14.936-1.223,21.358-4.394c1.304-0.644,2.439-1.584,3.341-2.724l0,0c0.72-0.909,1.285-1.933,1.646-3.035
				c7.581-23.17-6.149-50.639-28.424-60.889c-22.829-10.505-51.404-4.051-69.986,12.868c-6.243,5.684-11.597,12.58-14.293,20.581
				C1458.718,620.506,1462.853,636.616,1473.084,646.861z"/>
		</g>
		<g>
			<path fill="#F6F6F6" d="M1657.641,800.094c-6.421,0.965-10.623,7.745-11.04,14.225c-0.726,11.265,8.468,22.267,19.683,23.552
				c11.215,1.285,22.66-7.351,24.501-18.488c1.841-11.137-6.215-22.997-17.247-25.39c-3.647-0.791-8.309-0.125-9.747,3.318"/>
		</g>
		<g>
			<path fill="#F6F6F6" d="M1072.584,746.85c-4.895,0.736-8.098,5.905-8.417,10.844c-0.553,8.588,6.456,16.975,15.006,17.955
				s17.275-5.604,18.679-14.095c1.404-8.491-4.738-17.532-13.148-19.356c-2.78-0.603-6.334-0.096-7.43,2.53"/>
		</g>
		<g>
			<path fill="#F6F6F6" d="M1695.794,1066.295c-8.441,3.81-16.137,10.162-19.526,18.781c-3.389,8.618-1.516,19.602,5.862,25.199
				c7.378,5.597,19.943,3.391,23.541-5.142c3.188-7.562-0.549-17.784,5.313-23.527c1.308-1.281,3.008-2.198,3.985-3.746
				c2.185-3.463-0.61-8.323-4.444-9.764s-8.105-0.501-12.078,0.492"/>
		</g>
		<g>
			<path fill="#F6F6F6" d="M1261.049,578.956c-18.615,8.403-35.588,22.412-43.063,41.419c-7.474,19.007-3.342,43.23,12.929,55.574
				c16.271,12.344,43.983,7.479,51.917-11.341c7.031-16.677-1.212-39.222,11.717-51.888c2.884-2.825,6.634-4.846,8.788-8.26
				c4.82-7.638-1.347-18.355-9.8-21.534c-8.454-3.179-17.875-1.105-26.637,1.086"/>
		</g>
		<g>
			<path fill="#F6F6F6" d="M1284.907,826.419c-5.512-12.916-13.679-26.585-27.277-30.093c-8.439-2.177-17.327,0.072-25.693,2.512
				c-45.389,13.233-84.91,18.506-131.317,27.543c-33.888,6.599-31.346,61.462-24.149,89.627c3.085,12.071,7.434,24.098,15.22,33.823
				c10.385,12.971,26.302,20.84,42.717,23.423c16.414,2.583,33.308,0.217,49.211-4.601c43.798-13.268,81.35-45.875,100.632-87.378
				c4.242-9.131,7.683-18.926,7.463-28.992C1291.517,843.315,1288.429,834.67,1284.907,826.419z"/>
		</g>
		<g>
			<path fill="#F6F6F6" d="M1475.334,783.481c-0.528-5.047-4.764-8.911-9.187-11.399c-9.835-5.534-22.061-6.628-32.723-2.931
				l-8.414,2.051c-6.44-0.676-13.354-0.005-18.618,3.766s-8.176,11.288-5.199,17.038c2.688,5.192,8.87,7.329,14.473,8.998
				c10.248,3.051,20.761,6.111,31.434,5.457c10.673-0.654,21.714-5.775,26.527-15.323
				C1474.821,788.77,1475.61,786.118,1475.334,783.481z"/>
		</g>
		<g>
			<path fill="#F6F6F6" d="M1485.993,1294.814c-6.705-1.457-10.561-8.52-12.382-15.136c-1.667-6.058-2.38-12.378-2.104-18.656
				c0.252-5.738,1.623-11.954,6.107-15.543c4.942-3.955,12.022-3.48,18.236-2.272c2.126,0.413,4.319,0.925,6.023,2.263
				c3.177,2.495,3.725,6.985,5.289,10.71c1.712,4.078,4.807,7.451,6.556,11.513c2.867,6.661,1.576,14.915-3.189,20.381
				c-4.765,5.467-12.765,7.873-19.755,5.943"/>
		</g>
	</g>
</g>
<g>
	<g>
		<path fill="#C75124" d="M1298.451,1509.647c7.239-6.171,16.166-12.765,25.355-10.303c5.082,1.362,12.325,4.019,17.286,10.312
			c0,0,13.422-10,20.73-10.906c7.307-0.906,15.096,1.054,20.569,5.98c-4.964-2.723-11.137-1.604-16.462,0.321
			c-9.856,3.561-18.779,9.668-25.668,17.566c-3.798-6.463-8.132-13.387-15.177-15.948
			C1316.23,1503.449,1306.63,1504.973,1298.451,1509.647"/>
	</g>
	<g>
		<path fill="#C75124" d="M1348.05,1545.758c7.239-6.171,16.166-12.765,25.355-10.303c5.082,1.362,12.325,4.019,17.286,10.312
			c0,0,13.422-10,20.73-10.906c7.307-0.906,15.096,1.054,20.569,5.98c-4.964-2.723-11.137-1.604-16.462,0.321
			c-9.856,3.561-18.78,9.668-25.668,17.566c-3.798-6.463-8.132-13.387-15.177-15.948
			C1365.829,1539.56,1356.228,1541.084,1348.05,1545.758"/>
	</g>
	<g>
		<path fill="#C75124" d="M1588.144,1648.093c3.176-2.707,7.092-5.6,11.123-4.52c2.229,0.597,5.407,1.763,7.583,4.524
			c0,0,5.888-4.387,9.094-4.784c3.206-0.397,6.623,0.463,9.024,2.624c-2.178-1.195-4.886-0.703-7.222,0.141
			c-4.324,1.562-8.239,4.241-11.26,7.706c-1.666-2.835-3.568-5.873-6.658-6.997
			C1595.943,1645.374,1591.732,1646.042,1588.144,1648.093"/>
	</g>
	<g>
		<path fill="#C75124" d="M1206.458,1603.033c-3.336-24.556,21.695-26.905,26.655-20.612c0,0,16.318-15.555,33,16.474
			c-18.017-13.079-26.943-11.411-33.831-3.514C1228.483,1588.919,1218.469,1584.883,1206.458,1603.033"/>
	</g>
	<g>
		<path fill="#C75124" d="M1516.935,1533.953c-3.336-24.556,21.869-23.255,26.829-16.962c0,0,16.144-19.204,32.826,12.825
			c-18.017-13.079-26.943-11.411-33.831-3.514C1538.961,1519.839,1528.946,1515.803,1516.935,1533.953"/>
	</g>
	<g>
		<path fill="#C75124" d="M1461.065,1617.319c-0.409-15.471,15.151-12.957,17.804-8.715c0,0,11.322-10.83,19.511,10.184
			c-10.3-9.339-15.954-8.908-20.765-4.471C1475.694,1610.047,1469.75,1606.864,1461.065,1617.319"/>
	</g>
	<g>
		<path fill="#C75124" d="M1145.25,1496.636c7.486-1.524,16.322-2.689,21.823,2.613c3.043,2.932,7.1,7.614,8.141,13.964
			c0,0,13.319-1.812,18.807,0.391c5.488,2.203,10.2,6.607,12.132,12.196c-2.43-3.843-7.204-5.455-11.694-6.172
			c-8.311-1.327-16.956-0.503-24.866,2.37c-0.158-6.018-0.513-12.568-4.469-17.107
			C1160.154,1499.189,1152.814,1496.529,1145.25,1496.636"/>
	</g>
	<g>
		<path fill="#C75124" d="M1593.073,1577.298c3.481-3.822,7.844-7.987,12.966-7.288c2.833,0.387,6.92,1.324,10.025,4.378
			c0,0,6.553-6.309,10.431-7.297s8.211-0.463,11.499,1.818c-2.862-1.129-6.114-0.104-8.854,1.298
			c-5.07,2.594-9.464,6.496-12.638,11.225c-2.49-3.225-5.299-6.662-9.273-7.561
			C1602.235,1572.741,1597.163,1574.219,1593.073,1577.298"/>
	</g>
</g>
<g>
	<polygon fill="#632A0A" points="1713.668,1142.381 1769.641,1273.567 1769.641,1373.268 1844.854,1434.488 1869.342,1579.667 
		1923.566,1626.894 1932.311,1681.118 2041.151,1800 2850,1800 2850,1127.391 2240.161,974.307 1678.255,974.307 1725.912,1112.645 
			"/>
	<polygon fill="#702F0C" points="1678.255,974.307 1725.912,1112.645 1713.668,1142.381 1769.641,1273.567 1769.641,1373.268 
		1844.854,1434.488 1869.342,1579.667 1923.566,1626.894 1977.841,1574.568 1968.199,1436.891 1920.64,1371.497 1908.75,1267.461 
		1865.649,1185.719 1849.301,1230.305 1865.649,1309.075 1824.035,1245.168 1788.038,1010.121 	"/>
	<polygon fill="#632A0A" points="1788.038,1010.121 1824.035,1245.168 1865.649,1309.075 1849.301,1230.305 1865.649,1185.719 
		1908.75,1267.461 1920.64,1371.497 1968.199,1436.891 1945.393,1042.007 1936.244,1010.121 	"/>
	<polygon fill="#8F3B15" points="1932.311,1681.118 2041.151,1800 2254.976,1800 2142.782,1464.976 2073.025,1400.77 
		2046.027,1087.749 1945.393,1042.007 1977.841,1574.568 1923.566,1626.894 	"/>
	<polygon fill="#6F2F0C" points="2254.976,1800 2142.782,1464.976 1977.841,1574.568 2047.827,1800 	"/>
	<g>
		<path fill="#8F3B15" d="M1997.598,1658.581c14.459-4.63,29.021-9.283,44.086-11.165c-13.778,9.053-27.096,18.808-39.885,29.212
			c7.743,1.363,15.65,1.791,23.495,1.271c-6.638,2.943-12.971,6.572-18.865,10.812"/>
	</g>
	<g>
		<path fill="#8F3B15" d="M2024.446,1748.114c10.686-2.148,21.484-3.736,32.335-4.755c-9.587,5.74-19.473,10.98-29.606,15.691"/>
	</g>
	<polygon fill="#8F3B15" points="2117.385,1098.728 2139.461,1304.462 2174.885,1325.495 2193.014,1613.886 2270.086,1715.155 
		2260.123,1261.29 2315.472,1192.656 2329.632,1096.898 2234.487,1124.344 	"/>
	<polygon fill="#702F0C" points="2234.487,1124.344 2260.123,1261.29 2315.472,1192.656 2329.632,1096.898 	"/>
	<polygon fill="#632A0A" points="2157.639,1069.452 2046.027,1087.749 2073.025,1400.77 2142.782,1464.976 2193.014,1613.886 
		2174.885,1325.495 2139.461,1304.462 2117.385,1098.728 	"/>
	<polygon fill="#8F3B15" points="2588.223,1800 2492.591,1381.952 2512.112,1135.804 2391.732,1119.433 2380.785,1305.569 
		2322.114,1370.882 2389.987,1800 	"/>
	<polygon fill="#702F0C" points="2592.131,1800 2655.598,1294.118 2590.747,1133.846 2512.112,1135.804 2492.591,1381.952 
		2588.223,1800 	"/>
	<g>
		<path fill="#702F0C" d="M2536.074,1506.111c-11.34,3.993-22.679,7.986-34.019,11.979c-5.184,1.825-10.707,3.676-16.072,2.48
			c5.048,2.729,10.096,5.459,15.145,8.188c0.87,0.47,1.753,0.946,2.716,1.171c1.023,0.239,2.088,0.186,3.137,0.13
			c9.749-0.512,19.498-1.024,29.247-1.536c-18.191,14.649-43.696,14.853-65.771,22.483c22.622-2.247,45.334-3.59,68.064-4.023"/>
	</g>
	<g>
		<path fill="#702F0C" d="M2563.341,1641.584c-11.456,4.671-22.865,9.453-34.228,14.345c11.408,1.608,22.902,2.6,34.417,2.973"/>
	</g>
	<polygon fill="#C75124" points="2850,855.521 2146.661,904.778 1938.074,943.202 1678.255,956.01 1678.255,974.307 
		1788.038,1010.121 1936.244,1010.121 1945.393,1042.007 2046.027,1087.749 2157.639,1069.452 2117.385,1098.728 2234.487,1124.344 
		2329.632,1096.898 2391.733,1119.433 2512.112,1135.804 2850,1127.391 	"/>
	<polygon fill="#B54A20" points="2073.025,1400.77 1971.952,1477.926 1977.841,1574.568 2142.782,1464.976 	"/>
	<polygon fill="#632A0A" points="2292.024,1800 2389.987,1800 2322.114,1370.882 2380.785,1305.569 2391.732,1119.433 
		2329.632,1096.898 2315.472,1192.656 2260.123,1261.29 2270.086,1715.156 	"/>
	<polygon fill="#B54A20" points="2322.114,1370.882 2492.591,1381.952 2497.126,1324.769 2380.785,1305.569 	"/>
	<polygon fill="#B54A20" points="1725.912,1112.645 1775.414,1133.846 1748.639,1146.402 1713.668,1142.381 	"/>
	<polygon fill="#8F3B15" points="1844.854,1434.488 1878.118,1458.711 1869.342,1579.667 	"/>
	<polygon fill="#8F3B15" points="1769.641,1273.567 1796.633,1324.824 1769.641,1373.268 	"/>
	<polygon fill="#8F3B15" points="1678.255,974.307 1713.668,985.86 1725.912,1112.645 	"/>
	<g>
		<path fill="#702F0C" d="M2617.022,1477.926c17.463,0.997,34.934,1.831,52.413,2.504c-18.769,6.49-37.823,12.158-57.087,16.982"/>
	</g>
	<g>
		<path fill="#702F0C" d="M2602.026,1627.609c-0.44-0.306-0.976,0.453-0.711,0.919c0.265,0.466,0.865,0.595,1.395,0.678
			c21.473,3.346,43.012,6.268,64.6,8.764c-21.481,1.794-42.734,6.295-63.097,13.364c15.122,2.127,29.979,6.139,44.116,11.913
			c-14.77,0.656-29.662,2.633-43.384,8.138c9.904,1.032,19.471,5.099,27.086,11.515c-5.785,0.736-11.57,1.471-17.355,2.207
			c-6.38,0.811-13.286,1.876-17.751,6.506"/>
	</g>
	<polygon fill="#8F3B15" points="2740.484,1130.118 2655.598,1294.118 2590.747,1133.846 	"/>
	<g>
		<path fill="#8F3B15" d="M2253.709,1255.011c18.395,8.097,38.37,12.584,58.46,13.134c-19.541,7.297-38.964,14.911-58.26,22.835
			c8.158,5.176,17.935,6.997,27.442,8.717c-10.904,3.237-21.808,6.474-32.712,9.711"/>
	</g>
	<g>
		<path fill="#8F3B15" d="M2261.108,1540.491c12.148,2.844,24.157,6.277,35.973,10.282c-13.421,3.395-26.544,7.964-39.172,13.638"/>
	</g>
	<g>
		<path fill="#8F3B15" d="M2049.328,1167.963c8.77,2.958,17.898,5.957,27.089,4.87c6.666-0.789,13.197-3.716,19.844-2.774
			c-13.253,6.623-26.883,12.49-40.802,17.564c6.3,4.066,15.225,0.756,21.8,4.361c-8.171,2.441-15.989,6.058-23.139,10.705"/>
	</g>
	<g>
		<path fill="#8F3B15" d="M2059.26,1277.52c7.758,0.434,19.357,0.867,27.115,1.301c-8.604,4.925-17.209,9.851-25.813,14.776"/>
	</g>
</g>
<g>
	<g>
		<path fill="#632A0A" d="M587.258,1800c13.367-53.501,9.772-126.773,32.558-164.315c9.8-16.147,22.602-21.78,34.896-26.935
			c44.959-18.856,89.918-37.713,134.877-56.569c34.841-99.18,89.181-260.644,89.181-260.644l131.229-47.475l142.843-181.319
			l-6.657-33.706c0,0-809.019,93.29-1146.185,133.367V1800H587.258z"/>
	</g>
	<polygon fill="#702F0C" points="340.246,1800 317,1558.15 194.708,1644.858 150.903,1800 	"/>
	<polygon fill="#8F3B15" points="553.659,1393.259 566.379,1577.74 622.297,1388.364 626.326,1312.143 	"/>
	<polygon fill="#632A0A" points="613.231,1800 600.858,1705.12 781.315,1581.556 813.288,1483.952 842.961,1462.217 
		855.957,1408.047 589.993,1510.793 530.014,1800 	"/>
	<path fill="#8F3B15" d="M975.595,1114.321l1.16,114.225c0,0-12.343,32.041-12.161,31.941l45.405-16.426l53.42-67.809l4.495-86.257
		L975.595,1114.321z"/>
	<polygon fill="#8F3B15" points="1077.285,1057.083 1072.787,1143.432 1061.653,1166.929 1063.418,1176.252 1152.842,1062.742 
		1146.184,1029.036 	"/>
	<polygon fill="#994019" points="1156.329,1005.857 1159.205,1054.616 1152.842,1062.742 1146.184,1029.036 	"/>
	<polygon fill="#8F3B15" points="964.594,1159.652 964.594,1194.57 931.493,1232.309 925.872,1274.495 878.77,1291.536 
		849.364,1378.429 747.321,1393.259 763.73,1336.43 799.828,1297.368 808.965,1182.666 	"/>
	<polygon fill="#C75124" points="0,1019.168 755.951,984.036 821.637,1015.124 1081.335,995.589 1156.329,1005.857 
		1146.184,1029.036 1077.285,1057.083 1067.914,1089.995 975.595,1114.321 964.594,1159.652 808.965,1182.666 774.818,1234.107 
		659.089,1276.456 553.659,1393.259 0,1497.412 	"/>
	<polygon fill="#8F3B15" points="719.922,1348.77 767.825,1308.735 774.818,1234.107 505.301,1328.898 626.326,1312.143 
		622.297,1388.364 719.368,1360.201 	"/>
	<polygon fill="#C75124" points="640.06,1407.291 859.832,1379.681 855.957,1408.047 791.838,1450.359 626.326,1508.931 	"/>
	<polygon fill="#8F3B15" points="791.838,1450.359 728.181,1617.939 600.858,1705.12 626.326,1508.931 	"/>
	<polygon fill="#C75124" points="317,1558.15 458.879,1543.215 615.936,1588.972 619.816,1635.685 564.666,1688.828 
		285.886,1630.334 	"/>
	<polygon fill="#632A0A" points="333.854,1800 584.367,1800 584.373,1740.204 619.816,1635.685 564.666,1688.828 285.886,1630.334 
		290.285,1740.204 	"/>
	<polygon fill="#8F3B15" points="333.854,1800 502.503,1800 490.664,1751.17 564.666,1688.828 285.886,1630.334 290.285,1740.204 	
		"/>
</g>
<g>
	<g>
		<g>
			<path fill="#75310E" d="M1133.331,1020.011c-0.877-13.701-1.304-27.432-1.265-41.161c-3.112-0.335-6.293-0.012-9.275,0.94
				c2.122,13.407,6.718,28.237,8.839,41.644L1133.331,1020.011z"/>
		</g>
		<g>
			<path fill="#8F3B15" d="M1131.631,1021.434c-0.877-13.701-1.304-27.432-1.265-41.161c-3.112-0.335-6.293-0.012-9.275,0.94
				c2.122,13.407,4.244,26.814,6.365,40.221H1131.631z"/>
		</g>
		<path fill="#A7451D" d="M1121.092,981.214l1.7-1.424c4.251-1.557,9.275-0.94,9.275-0.94l-1.7,1.424L1121.092,981.214z"/>
	</g>
	<g>
		<g>
			<path fill="#75310E" d="M1145.043,1010.42c-0.877-13.701-1.304-27.432-1.265-41.161c-3.112-0.335-6.293-0.012-9.275,0.94
				c2.122,13.407,6.717,28.237,8.839,41.644L1145.043,1010.42z"/>
		</g>
		<g>
			<path fill="#8F3B15" d="M1143.344,1011.843c-0.877-13.701-1.304-27.432-1.265-41.161c-3.112-0.335-6.293-0.012-9.275,0.94
				c2.122,13.407,4.244,26.814,6.365,40.221H1143.344z"/>
		</g>
		<path fill="#A7451D" d="M1132.804,971.623l1.7-1.424c4.251-1.557,9.275-0.94,9.275-0.94l-1.7,1.424L1132.804,971.623z"/>
	</g>
	<g>
		<g>
			<path fill="#75310E" d="M1707.479,973.307c0.877-13.701,2.204-27.374,3.994-40.986c-3.044-0.729-6.24-0.815-9.319-0.25
				c0.395,13.568,3.062,28.863,3.458,42.431L1707.479,973.307z"/>
		</g>
		<g>
			<path fill="#8F3B15" d="M1705.612,974.502c0.877-13.701,2.204-27.374,3.994-40.986c-3.044-0.729-6.24-0.815-9.319-0.25
				c0.395,13.568,0.79,27.136,1.185,40.704L1705.612,974.502z"/>
		</g>
		<path fill="#A7451D" d="M1700.287,933.266l1.867-1.195c4.415-1.002,9.319,0.25,9.319,0.25l-1.867,1.195L1700.287,933.266z"/>
	</g>
	<g>
		<g>
			<path fill="#75310E" d="M1695.622,961.658c0.126-13.729,0.702-27.454,1.744-41.143c-3.079-0.561-6.275-0.472-9.318,0.261
				c1.137,13.526,4.638,28.652,5.776,42.178L1695.622,961.658z"/>
		</g>
		<g>
			<path fill="#8F3B15" d="M1693.823,962.953c0.126-13.729,0.702-27.454,1.744-41.143c-3.079-0.561-6.275-0.472-9.318,0.261
				c1.137,13.526,2.275,27.052,3.412,40.578L1693.823,962.953z"/>
		</g>
		<path fill="#A7451D" d="M1686.249,922.071l1.799-1.296c4.354-1.243,9.318-0.261,9.318-0.261l-1.799,1.296L1686.249,922.071z"/>
	</g>
	<g>
		<g>
			<path fill="#6C2D0B" d="M1706.717,968.266c-82.967,35.394-173.108,53.213-262.558,61.963
				c-77.893,7.62-157.215,8.858-235.092,0.271c-27.51-3.033-55.861-6.818-82.088-16.061c-1.824-0.643-2.609,2.254-0.798,2.893
				c22.779,8.028,47.167,11.735,71.035,14.765c35.047,4.449,70.412,6.421,105.724,6.964c87.649,1.348,175.985-6.017,261.81-24.108
				c49.02-10.333,97.361-24.421,143.482-44.096C1710.001,970.102,1708.474,967.516,1706.717,968.266L1706.717,968.266z"/>
		</g>
	</g>
	<g>
		<g>
			<path fill="#6C2D0B" d="M1694.81,955.939c-80.672,34.417-167.644,53.405-254.625,62.784
				c-73.331,7.906-148.126,9.621-221.524,1.488c-26.633-2.951-53.916-6.856-79.295-15.8c-1.824-0.643-2.609,2.254-0.798,2.893
				c21.986,7.748,45.4,11.542,68.443,14.513c33.248,4.287,66.819,6.095,100.327,6.439c82.967,0.851,166.445-7.211,247.485-25.133
				c48.354-10.693,95.924-25.148,141.5-44.592C1698.094,957.774,1696.568,955.189,1694.81,955.939L1694.81,955.939z"/>
		</g>
	</g>
	<g>
		<g>
			<path fill="#6C2D0B" d="M1708.238,938.356c-83.804,35.751-175.055,53.311-265.404,61.915
				c-78.795,7.504-158.99,8.649-237.752,0.026c-27.761-3.039-56.422-6.777-82.89-16.105c-1.824-0.643-2.609,2.254-0.797,2.893
				c22.887,8.066,47.425,11.735,71.406,14.766c35.626,4.503,71.574,6.504,107.466,7.077c88.75,1.416,178.227-5.798,265.178-23.914
				c49.298-10.271,97.945-24.289,144.308-44.067C1711.522,940.191,1709.995,937.606,1708.238,938.356L1708.238,938.356z"/>
		</g>
	</g>
	<g>
		<g>
			<path fill="#6C2D0B" d="M1694.81,926.586c-81.398,34.726-169.326,53.446-257.095,62.635
				c-74.263,7.775-149.973,9.336-224.273,1.077c-26.76-2.975-54.208-6.856-79.712-15.844c-1.824-0.643-2.609,2.254-0.797,2.893
				c22.138,7.802,45.741,11.578,68.941,14.565c33.661,4.334,67.644,6.188,101.567,6.589c84.142,0.995,168.845-6.905,251.082-24.894
				c48.455-10.599,96.149-24.955,141.801-44.432C1698.094,928.421,1696.568,925.836,1694.81,926.586L1694.81,926.586z"/>
		</g>
	</g>
	<g>
		<g>
			<g>
				<path fill="#702F0C" d="M1365.595,1025.629c-0.03,3.748-0.342,7.494-0.933,11.195c-0.054,0.335-0.083,0.742,0.186,0.948
					c0.191,0.147,0.457,0.127,0.696,0.1c2.04-0.23,4.08-0.46,6.12-0.689c-0.449-0.924-0.447-1.993-0.467-3.021
					c-0.057-2.996-0.368-5.987-0.93-8.931c-0.026-0.137-0.061-0.287-0.174-0.368c-0.107-0.077-0.251-0.069-0.383-0.057
					c-1.148,0.104-2.295,0.207-3.443,0.311"/>
			</g>
			<g>
				<path fill="#8F3B15" d="M1365.595,1024.543c-0.03,3.748-0.342,7.494-0.933,11.195c-0.054,0.335-0.083,0.742,0.186,0.948
					c0.191,0.147,0.457,0.127,0.696,0.1c2.04-0.23,4.08-0.459,6.12-0.689c-0.449-0.924-0.447-1.993-0.467-3.021
					c-0.057-2.996-0.368-5.987-0.93-8.931c-0.026-0.137-0.061-0.287-0.174-0.368c-0.107-0.077-0.251-0.069-0.383-0.057
					c-1.148,0.104-2.295,0.207-3.443,0.311"/>
			</g>
		</g>
		<g>
			<path fill="#8F3B15" d="M1365.029,1024.194c-0.076,1.374-0.921,9.945-1.708,12.811c-1.315,0.098-3.927,0.063-5.242,0.161
				c-0.52,0.039-1.042,0.078-1.563,0.068c1.753-3.387,3.124-6.972,4.08-10.664c0.177-0.683,0.341-1.386,0.275-2.089
				c1.38,0.064,2.765-0.005,4.131-0.205"/>
		</g>
		<path fill="#8F3B15" d="M1359.608,1024.799c-0.159,1.983-4.453,12.798-4.718,12.904c-0.265,0.106-8.167,0.24-8.535,0
			c-0.369-0.24,7.157-12.087,7.263-12.299c0.106-0.212,0.106-0.212,0.106-0.212L1359.608,1024.799z"/>
		<polygon fill="#8F3B15" points="1351.401,1025.289 1344.382,1037.837 1334.71,1037.633 1344.382,1025.565 		"/>
		<polygon fill="#8F3B15" points="1341.613,1025.724 1332.418,1037.655 1324.812,1037.655 1334.299,1025.724 		"/>
		<polygon fill="#8F3B15" points="1331.113,1025.724 1321.264,1037.891 1309.965,1037.648 1323.002,1025.724 		"/>
		<polygon fill="#8F3B15" points="1319.741,1025.724 1307.49,1037.837 1296.279,1037.235 1309.965,1025.724 		"/>
		<polygon fill="#8F3B15" points="1305.648,1025.724 1293.877,1036.805 1284.669,1036.805 1295.158,1025.724 		"/>
		<polygon fill="#8F3B15" points="1291.635,1025.724 1280.185,1036.805 1269.455,1035.938 1280.545,1025.289 		"/>
		<polygon fill="#8F3B15" points="1276.822,1025.289 1267.213,1035.778 1253.903,1035.752 1268.014,1024.648 		"/>
		<polygon fill="#8F3B15" points="1264.875,1024.648 1252.542,1035.083 1240.21,1034.169 1254.826,1024.121 		"/>
		<polygon fill="#8F3B15" points="1251.812,1024.121 1236.373,1034.551 1224.291,1033.531 1242.951,1023.116 		"/>
		<path fill="#8F3B15" d="M1238.051,1023.116c-0.307-0.183-14.74,9.5-14.74,9.5l-10.711-0.235l13.726-11.184L1238.051,1023.116z"/>
		<polygon fill="#8F3B15" points="1223.128,1021.198 1209.792,1031.808 1198.795,1030.795 1215.455,1020.193 		"/>
		<polygon fill="#8F3B15" points="1213.01,1020.193 1196.43,1030.497 1188.462,1028.833 1203.694,1018.968 		"/>
		<polygon fill="#8F3B15" points="1199.775,1018.598 1185.505,1028.833 1177.672,1027.807 1193.934,1017.711 		"/>
		<polygon fill="#8F3B15" points="1189.941,1017.711 1175.301,1027.767 1167.094,1026 1184.913,1016.38 		"/>
		<polygon fill="#8F3B15" points="1182.177,1016.01 1163.84,1026 1155.928,1024.121 1174.783,1014.605 		"/>
		<polygon fill="#8F3B15" points="1170.364,1014.286 1153.784,1024.121 1146.908,1021.776 1164.357,1012.461 		"/>
		<polygon fill="#8F3B15" points="1160.705,1012.138 1143.95,1021.434 1137.665,1019.263 1153.852,1010.411 		"/>
		<polygon fill="#8F3B15" points="1150.511,1009.497 1135.658,1019.042 1130.647,1015.923 1144.206,1006.785 		"/>
		<g>
			<path fill="#8F3B15" d="M1371.976,1024.233c0.179,1.364,1.664,9.848,2.664,12.647c1.319-0.001,3.921-0.232,5.239-0.233
				c0.522,0,1.044-0.001,1.564-0.05c-2.002-3.246-3.638-6.718-4.868-10.328c-0.228-0.668-0.444-1.356-0.431-2.062
				c-1.371,0.168-2.758,0.203-4.135,0.105"/>
		</g>
		<path fill="#8F3B15" d="M1377.427,1024.43c0.307,1.966,5.401,12.428,5.673,12.514c0.272,0.086,8.162-0.373,8.511-0.64
			c0.349-0.267-8.044-11.516-8.165-11.72c-0.122-0.203-0.122-0.203-0.122-0.203L1377.427,1024.43z"/>
		<polygon fill="#8F3B15" points="1385.648,1024.303 1393.588,1036.289 1403.217,1035.36 1392.667,1024.052 		"/>
		<polygon fill="#8F3B15" points="1395.44,1024.002 1405.505,1035.21 1413.089,1034.64 1402.734,1023.453 		"/>
		<polygon fill="#8F3B15" points="1405.911,1023.214 1416.645,1034.609 1427.894,1033.518 1413.999,1022.606 		"/>
		<polygon fill="#8F3B15" points="1417.251,1022.361 1430.376,1033.521 1441.51,1032.08 1426.999,1021.628 		"/>
		<polygon fill="#8F3B15" points="1431.304,1021.304 1443.873,1031.47 1453.056,1030.78 1441.764,1020.517 		"/>
		<polygon fill="#8F3B15" points="1445.277,1020.253 1457.527,1030.443 1468.161,1028.774 1456.304,1018.987 		"/>
		<polygon fill="#8F3B15" points="1460.016,1018.707 1470.385,1028.446 1483.655,1027.421 1468.752,1017.408 		"/>
		<polygon fill="#8F3B15" points="1471.882,1017.172 1484.962,1026.652 1497.191,1024.816 1481.862,1015.892 		"/>
		<polygon fill="#8F3B15" points="1484.868,1015.666 1501.047,1024.909 1513.018,1022.985 1493.629,1013.999 		"/>
		<path fill="#8F3B15" d="M1498.515,1013.632c0.292-0.205,15.411,8.368,15.411,8.368l10.663-1.038l-14.526-10.123L1498.515,1013.632
			z"/>
		<polygon fill="#8F3B15" points="1513.251,1010.599 1527.347,1020.179 1538.237,1018.344 1520.828,1009.022 		"/>
		<polygon fill="#8F3B15" points="1523.265,1008.838 1541.283,1018.24 1549.234,1016.569 1532.464,1006.917 		"/>
		<polygon fill="#8F3B15" points="1536.344,1006.255 1551.979,1016.031 1559.833,1014.447 1542.102,1004.932 		"/>
		<polygon fill="#8F3B15" points="1545.432,1004.273 1562.784,1013.835 1570.437,1012.203 1550.998,1002.928 		"/>
		<polygon fill="#8F3B15" points="1553.698,1002.354 1573.671,1011.494 1581.907,1009.062 1560.966,1000.398 		"/>
		<polygon fill="#8F3B15" points="1564.868,999.51 1584.208,1009.099 1591.395,1006.917 1571.201,997.478 		"/>
		<polygon fill="#8F3B15" points="1574.819,996.881 1594.931,1006.999 1601.977,1004.932 1581.523,994.646 		"/>
		<polygon fill="#8F3B15" points="1584.786,994.646 1604.015,1004.59 1610.769,1002.471 1593.68,992.023 		"/>
		<path fill="#8F3B15" d="M1596.609,991.302c-0.106,0.029,16.75,10.474,16.75,10.474l8.197-2.256l-18.373-10.032L1596.609,991.302z"
			/>
		<path fill="#8F3B15" d="M1606.781,988.471c0.343-0.098,18.482,9.836,18.482,9.836l10.683-3.661l-20.596-8.666L1606.781,988.471z"
			/>
		<polygon fill="#8F3B15" points="1618.829,984.939 1641.014,993.791 1649.783,991.027 1625.315,982.954 		"/>
		<polygon fill="#8F3B15" points="1629.587,981.615 1653.289,989.888 1661.629,987.1 1636.826,979.283 		"/>
		<path fill="#8F3B15" d="M1640.148,978.188c-0.029,0.01,24.742,7.792,24.742,7.792l9.606-3.408l-25.501-7.385L1640.148,978.188z"/>
		<polygon fill="#8F3B15" points="1652.82,973.852 1678.255,981.194 1686.249,978.178 1659.719,971.384 		"/>
		<polygon fill="#8F3B15" points="1663.164,970.123 1688.048,976.646 1696.579,974.099 1671.219,967.094 		"/>
		<polygon fill="#8F3B15" points="1675.769,965.335 1698.596,973.277 1705.88,970.241 1681.778,962.953 		"/>
	</g>
	<g>
		<g>
			<path fill="#6C2D0B" d="M1127.211,1014.951c0.729-4.642,2.276-9.007,4.24-13.267c1.722-3.734,3.565-8.856,6.692-11.607
				c0.092-0.081,0.07-0.256-0.04-0.312c-0.407-0.205-0.814-0.41-1.221-0.615c-0.129-0.065-0.305,0.013-0.3,0.172
				c0.175,5.513,0.69,11.003,1.612,16.442c0.49,2.889,1.088,5.759,1.793,8.603c0.352,1.418,0.698,2.851,1.138,4.244
				c0.143,0.637,0.357,1.249,0.64,1.837c-0.496,0.074-0.501,0.024-0.013-0.148c0.956-0.283,1.945-1.692,2.639-2.379
				c1.002-0.993,1.99-1.999,2.964-3.02c1.948-2.041,3.84-4.135,5.674-6.279c3.453-4.037,6.68-8.254,9.716-12.612
				c0.094-0.135-0.012-0.286-0.137-0.338c-0.126-0.052-0.253-0.104-0.379-0.156c-0.175-0.072-0.315,0.131-0.283,0.283
				c2.194,10.262,3.107,20.693,2.737,31.179c-0.007,0.184,0.202,0.282,0.352,0.202c5.01-2.674,8.509-8.47,11.941-12.822
				c1.837-2.33,3.651-4.677,5.444-7.041c1.113-1.468,2.216-2.942,3.311-4.422c0.737-0.997,1.782-2.001,2.119-3.205
				c0.036-0.128-0.044-0.254-0.167-0.294c-0.072-0.023-0.144-0.047-0.217-0.07c-0.1-0.032-0.219,0.021-0.27,0.11
				c-0.031,0.053-0.061,0.105-0.092,0.158c-0.113,0.195,0.124,0.47,0.327,0.327c1.062-0.748,0.826,0.389,1.084,1.431
				c0.362,1.459,0.757,2.91,1.129,4.366c0.743,2.913,1.466,5.831,2.17,8.754c1.407,5.846,2.732,11.711,3.987,17.591
				c0.034,0.157,0.228,0.219,0.358,0.146c2.061-1.156,3.781-4.491,5.254-6.347c2.192-2.763,4.383-5.526,6.575-8.288
				c3.714-4.682,8.114-9.299,10.337-14.927c0.091-0.231-0.257-0.422-0.415-0.242c-0.193,0.221-0.386,0.442-0.579,0.663
				c-0.079,0.09-0.09,0.195-0.039,0.301c4.675,9.776,7.764,20.153,9.188,30.895c0.023,0.173,0.203,0.337,0.38,0.218
				c1.359-0.908,2.137-2.649,3.076-3.96c1.976-2.758,4.016-5.47,6.117-8.133c3.673-4.655,7.533-9.163,11.569-13.508
				c0.359-0.386,2.326-2.99,2.792-2.915c0.547,0.087,1.722,3.569,1.977,4.138c1.334,2.974,2.603,5.977,3.805,9.007
				c2.286,5.763,4.316,11.622,6.129,17.55c0.073,0.239,0.426,0.249,0.495,0c0.356-1.3,2.133-2.211,3.1-3.176
				c1.869-1.864,3.593-3.903,5.362-5.86c3.573-3.953,7.106-7.944,10.481-12.069c1.409-1.722,2.791-3.467,4.135-5.241
				c0.399-0.526,1.765-2.544,1.353-2.457c0.906-0.191,2.399,1.964,3.05,2.837c2.87,3.847,5.556,7.923,7.995,12.056
				c1.19,2.017,2.303,4.083,3.274,6.215c0.61,1.341,1.164,2.707,1.647,4.099c0.394,1.136,0.494,2.84,1.123,3.825
				c1.068,1.672,1.886,0.416,2.823-0.598c0.798-0.864,1.581-1.742,2.349-2.632c1.442-1.67,2.832-3.384,4.167-5.141
				c2.949-3.879,5.63-7.96,8.017-12.208c1.153-2.05,2.236-4.139,3.249-6.262c0.248-0.52,1.13-3.166,1.633-3.163
				c0.637,0.004,1.682,2.461,1.992,3.031c5.015,9.233,6.26,19.955,10.348,29.57c0.062,0.146,0.315,0.175,0.412,0.053
				c2.664-3.335,6.77-5.816,9.911-8.747c3.632-3.389,7.067-6.99,10.28-10.778c3.014-3.552,5.835-7.269,8.444-11.129
				c0.48-0.71,1.157-2.375,2.057-2.557c0.866-0.175,1.715,0.827,2.331,1.43c2.015,1.974,3.556,4.553,5.194,6.839
				c3.086,4.305,6.126,8.648,8.915,13.153c1.463,2.364,3.08,4.798,4.209,7.344c1.96,4.422,0.299,2.138,0.902,1.284
				c0.652-0.923,1.241-2.185,1.918-3.175c3.061-4.473,6.008-9.024,8.839-13.646c1.51-2.465,2.985-4.951,4.428-7.456
				c1.277-2.218,2.388-5.289,4.198-7.099c0.111-0.111,0.106-0.348-0.054-0.42c2.144,0.965,4.432,3.559,5.987,5.36
				c2.248,2.603,3.928,5.522,5.199,8.71c0.968,2.427,1.76,4.903,3.058,7.184c1.484,2.606,3.316,4.925,4.265,7.811
				c0.077,0.234,0.355,0.249,0.491,0.064c3.419-4.623,5.605-9.688,8.16-14.803c1.559-3.121,3.35-6.067,5.727-8.64
				c2.301-2.492,4.873-4.699,7.004-7.351c0.381-0.474,1.296-2.191,1.639-2.28c1.186-0.308,4.54,2.525,5.318,3.161
				c2.327,1.902,4.404,4.145,6.312,6.461c4.667,5.663,8.142,12.16,10.413,19.129c0.028,0.086,0.096,0.171,0.19,0.19
				c0.085,0.017,0.17,0.034,0.256,0.051c0.115,0.023,0.249-0.014,0.307-0.125c3.111-5.904,6.237-11.813,9.829-17.443
				c3.554-5.571,7.745-11.996,13.08-16.048c0.085-0.219,0.171-0.437,0.256-0.656c0.519-0.092,0.997-0.008,1.433,0.25
				c0.753,0.231,1.547,0.689,2.254,1.017c1.493,0.692,2.974,1.414,4.411,2.217c3.211,1.793,6.033,4.044,8.666,6.601
				c2.754,2.674,5.412,5.454,8.03,8.26c1.85,1.984,3.885,5.423,6.349,6.564c0.168,0.078,0.343,0.015,0.404-0.164
				c2.293-6.65,5.022-13.137,8.237-19.395c1.612-3.137,3.338-6.216,5.174-9.227c0.826-1.355,1.677-2.695,2.547-4.023
				c0.792-1.211,0.968-1.197,2.262-0.799c3.492,1.073,6.131,3.972,8.494,6.636c2.33,2.626,4.399,5.482,6.177,8.509
				c1.528,2.602,2.647,5.42,4.189,8.009c0.787,1.321,1.541,2.862,3.085,3.254c0.157,0.04,0.293-0.051,0.347-0.197
				c2.402-6.572,5.4-12.902,9.033-18.884c1.647-2.712,3.417-5.35,5.301-7.903c0.649-0.879,5.709-8.313,6.885-7.725
				c0.164,0.082,0.375,0.017,0.425-0.173c0.334-1.258,4.706,1.312,5.327,1.717c1.382,0.902,2.676,1.939,3.889,3.057
				c2.434,2.244,4.521,4.817,6.463,7.49c1.817,2.501,3.494,5.099,5.256,7.637c0.894,1.288,1.652,3.546,3.396,3.449
				c0.123-0.007,0.26-0.086,0.286-0.217c1.325-6.69,3.029-13.293,5.174-19.768c1.047-3.163,2.07-6.448,3.749-9.344
				c1.124-1.939,3.399-5.188,6.022-5.19c1.245-0.001,2.974,1.315,4.095,1.878c1.458,0.732,2.923,1.452,4.372,2.202
				c2.947,1.525,5.586,3.345,7.865,5.776c3.891,4.15,6.768,9.122,10.746,13.202c0.071,0.073,0.202,0.118,0.302,0.08
				c0.308-0.119,0.615-0.238,0.923-0.357c0.134-0.052,0.222-0.152,0.228-0.299c0.431-11.761,3.191-23.199,8.178-33.858
				c0.173-0.369-0.313-0.657-0.547-0.32c-0.066,0.095-0.132,0.19-0.197,0.285c0.197,0.053,0.394,0.107,0.59,0.16
				c0.01,0.081,3.801,1.921,4.186,2.142c1.243,0.716,2.49,1.427,3.73,2.147c1.996,1.159,3.992,2.333,5.843,3.716
				c4.456,3.33,7.915,8.009,11.568,12.157c0.12,0.136,0.333,0.11,0.457,0c1.656-1.467,1.813-4.419,2.564-6.464
				c1.313-3.574,2.93-7.027,4.595-10.448c3.014-6.194,6.151-12.309,8.313-18.867c0.125-0.378-0.471-0.54-0.595-0.164
				c-2.09,6.34-5.145,12.266-8.062,18.25c-1.256,2.576-2.486,5.165-3.593,7.809c-0.578,1.38-1.125,2.773-1.621,4.185
				c-0.232,0.661-0.93,4.472-1.548,4.789c-0.731,0.375-1.883-1.625-2.555-2.388c-1.073-1.217-2.142-2.436-3.218-3.651
				c-1.963-2.218-3.974-4.311-6.382-6.05c-2.603-1.88-5.437-3.422-8.217-5.021c-1.384-0.796-4.187-3.365-5.899-2.711
				c-0.118,0.045-0.251,0.161-0.233,0.306c0.011,0.087,0.022,0.174,0.033,0.262c0.039,0.31,0.401,0.434,0.59,0.16
				c0.066-0.095,0.132-0.19,0.197-0.285c-0.182-0.107-0.365-0.213-0.547-0.32c-2.427,5.192-4.389,10.576-5.768,16.142
				c-0.685,2.764-1.232,5.563-1.64,8.382c-0.396,2.741-0.096,5.954-0.805,8.586c-0.381,1.416-0.68,0.956-1.665-0.091
				c-0.818-0.87-1.563-1.817-2.3-2.755c-1.576-2.004-3.042-4.092-4.622-6.093c-3.253-4.119-6.818-7.015-11.494-9.383
				c-1.32-0.669-2.645-1.328-3.968-1.991c-0.786-0.394-2.655-1.74-3.55-1.778c-0.734-0.031-1.881,0.462-2.539,0.787
				c-3.231,1.593-5.049,5.778-6.278,8.926c-2.222,5.691-3.939,11.623-5.392,17.552c-0.351,1.431-0.681,2.868-0.992,4.308
				c-0.094,0.438-0.193,1.703-0.451,2.164c-0.661,1.181-0.118,0.892-1.023,0.229c-0.936-0.686-1.724-2.414-2.377-3.365
				c-0.972-1.416-1.923-2.845-2.897-4.26c-3.091-4.489-6.425-8.91-10.819-12.212c-1.538-1.156-4.166-3.277-6.2-3.338
				c-0.632-0.019-1.401,0.565-1.696,0.417c-0.111-0.055-0.262-0.054-0.351,0.045c-4.593,5.121-8.716,10.633-12.257,16.534
				c-1.805,3.007-3.463,6.102-4.958,9.274c-0.651,1.382-1.272,2.777-1.864,4.186c-0.323,0.77-0.64,1.543-0.944,2.32
				c-0.097,0.248-0.677,2.406-0.911,2.566c-1.068,0.728-4.85-7.46-5.281-8.297c-1.477-2.864-3.204-5.595-5.161-8.156
				c-3.438-4.497-7.297-9.021-13.003-10.291c-0.127-0.028-0.241,0.021-0.313,0.127c-3.719,5.58-7.083,11.381-10.016,17.412
				c-1.322,2.718-2.557,5.477-3.707,8.271c-0.604,1.468-1.185,2.945-1.741,4.431c-0.309,0.826-0.595,1.66-0.902,2.487
				c-0.442,1.185-0.16,1.563-1.471,0.229c-4.745-4.826-9.051-10.054-14.015-14.68c-4.597-4.284-9.994-6.957-15.698-9.469
				c-0.125-0.055-0.307-0.048-0.374,0.098c-0.266,0.571-0.299,0.51,0.058,1.048c0.146,0.22,0.51,0.144,0.51-0.138
				c0-0.125,0-0.249,0-0.374c0-0.247-0.295-0.349-0.467-0.193c-5.084,4.566-9.354,9.878-13.095,15.582
				c-1.875,2.858-3.616,5.802-5.29,8.781c-0.879,1.564-1.738,3.139-2.587,4.719c-0.521,0.97-1.583,4.149-2.426,4.666
				c-0.15,0.608-0.276,0.471-0.379-0.412c-0.107-0.309-0.213-0.618-0.32-0.927c-0.326-0.923-0.681-1.839-1.055-2.744
				c-0.508-1.229-1.058-2.442-1.65-3.633c-1.601-3.218-3.498-6.287-5.664-9.156c-3.672-4.862-7.877-9.259-13.489-11.763
				c-0.142-0.064-0.278-0.034-0.37,0.097c-4.21,5.997-10.181,10.244-13.692,16.78c-1.562,2.908-2.838,5.958-4.311,8.91
				c-0.768,1.539-1.582,3.057-2.513,4.504c-0.423,0.657-0.878,1.289-1.342,1.917c-0.146,0.189-0.29,0.38-0.431,0.573
				c-0.258,0.479-0.339,0.505-0.243,0.077c-0.075-0.072-0.296-1.085-0.334-1.183c-0.314-0.814-0.826-1.621-1.273-2.366
				c-0.775-1.293-1.657-2.521-2.401-3.833c-1.843-3.253-2.715-6.929-4.427-10.244c-1.418-2.747-3.291-5.266-5.486-7.442
				c-1.016-1.007-3.475-3.807-5.075-3.707c-0.114,0.007-0.231,0.078-0.258,0.196c-0.021,0.093-0.043,0.186-0.064,0.28
				c-0.024,0.105,0.014,0.253,0.123,0.302c-0.408-0.184-9.238,15.463-10.265,17.104c-1.917,3.063-3.887,6.093-5.907,9.089
				c-1.381,2.047-2.955,3.695-3.364,6.135c-0.056,0.334,0.4,0.47,0.513,0.141c0.943-2.758-2.555-6.783-3.924-9.034
				c-2.478-4.073-5.173-8.009-7.93-11.897c-2.234-3.15-4.333-6.713-7.131-9.409c-1.039-1.001-1.907-1.995-3.265-0.949
				c-1.397,1.077-2.591,3.897-3.626,5.342c-1.433,2.001-2.925,3.96-4.472,5.874c-2.811,3.477-5.807,6.804-8.967,9.966
				c-3.043,3.046-6.239,5.937-9.575,8.659c-0.255,0.208-3.25,3.08-3.42,3.035c-0.172-0.046-0.941-2.844-1.092-3.259
				c-0.434-1.196-0.833-2.405-1.214-3.618c-2.756-8.772-4.552-17.928-9.725-25.701c-0.067-0.101-0.176-0.147-0.295-0.12
				c-1.793,0.409-2.396,3.776-3.152,5.288c-1.579,3.155-3.318,6.23-5.204,9.211c-3.946,6.237-8.558,12.011-13.693,17.307
				c-0.2,0.206,0.06,0.57,0.314,0.407c0.006-0.004,0.012-0.007,0.017-0.011c0.102-0.065,0.144-0.176,0.119-0.293
				c-1.252-5.952-3.804-11.413-6.938-16.596c-2.98-4.929-6.157-10.35-10.258-14.438c-0.104-0.104-0.259-0.091-0.365,0
				c-0.561,0.484-0.516,0.382-0.505,1.139c0.004,0.302,0.409,0.336,0.507,0.069c0.097-0.265,0.193-0.53,0.29-0.795
				c0.107-0.295-0.312-0.417-0.472-0.199c-4.105,5.624-8.571,10.96-13.189,16.166c-2.195,2.475-4.42,4.924-6.649,7.369
				c-1.501,1.646-3.067,3.522-4.995,4.633c-0.074,0.042-0.151,0.724-0.194,0.709c0.233,0.084-0.207-1.797-0.219-1.842
				c-0.391-1.578-1.006-3.14-1.527-4.679c-1.052-3.109-2.172-6.194-3.36-9.253c-1.064-2.74-2.182-5.458-3.353-8.154
				c-0.948-2.184-1.772-5.141-3.348-6.958c-0.089-0.103-0.27-0.094-0.361,0c-6.119,6.366-11.879,13.064-17.212,20.103
				c-1.302,1.719-2.579,3.457-3.83,5.213c-0.515,0.722-1.184,2.227-1.939,2.688c-1.019,0.622-0.035,0.481-0.4-0.168
				c-0.107-0.19-0.129-0.887-0.158-1.105c-0.604-4.49-1.652-8.958-2.92-13.304c-1.132-3.879-2.501-7.689-4.091-11.404
				c-0.444-1.038-1.24-2.242-1.504-3.347c0.003,0.014-0.504-1.132-0.202-0.976c0.113,0.058-0.555,0.68-0.872,1.178
				c-1.244,1.954-2.337,3.903-3.761,5.752c-2.888,3.749-5.872,7.427-8.812,11.135c-1.499,1.891-2.998,3.782-4.497,5.672
				c-0.692,0.873-1.384,1.745-2.076,2.618c-0.345,0.436-0.681,0.883-1.038,1.309c-0.889,1.06-0.478,0.949-0.88,0.079
				c-1.016-2.201-1.162-5.33-1.702-7.706c-0.582-2.565-1.18-5.127-1.792-7.685c-1.311-5.482-2.697-10.946-4.141-16.395
				c-0.037-0.139-0.224-0.233-0.351-0.143c-1.404,0.99-2.316,3.195-3.39,4.64c-1.208,1.626-2.427,3.244-3.656,4.854
				c-2.781,3.643-5.616,7.246-8.505,10.805c-1.304,1.608-2.581,3.269-4.04,4.742c-0.702,0.709-1.434,1.347-2.247,1.928
				c-1.314,0.939-1.073,0.78-1.008-0.578c0.205-4.284-0.005-8.633-0.341-12.905c-0.295-3.752-0.764-7.492-1.4-11.202
				c-0.189-1.103-0.36-2.222-0.615-3.312c-0.301-1.29-0.08-2.034-1.106-1.23c-1.439,1.128-2.634,3.66-3.751,5.12
				c-5.134,6.713-10.827,12.968-16.961,18.779c-0.135,0.128-0.036,0.389,0.157,0.378c0.26-0.015,0.519-0.029,0.779-0.044
				c0.139-0.008,0.257-0.136,0.213-0.28c-1.605-5.258-2.884-10.602-3.76-16.031c-0.464-2.874-0.819-5.766-1.066-8.666
				c-0.124-1.46-0.173-2.925-0.29-4.385c0.02-0.652-0.044-1.294-0.192-1.928c0.21,0.105,0.42,0.211,0.63,0.316
				c-4.481,7.149-9.181,15.98-10.501,24.986C1126.98,1015.03,1127.189,1015.091,1127.211,1014.951L1127.211,1014.951z"/>
		</g>
	</g>
	<g>
		<g>
			<path fill="#6C2D0B" d="M1139.876,1004.526c0.704-4.75,2.236-9.235,4.17-13.619c1.59-3.604,3.208-8.567,6.182-11.258
				c0.09-0.082,0.067-0.247-0.039-0.303c-0.385-0.205-0.771-0.41-1.156-0.615c-0.125-0.067-0.297,0.015-0.292,0.168
				c0.158,5.326,0.62,10.633,1.442,15.899c0.422,2.703,0.933,5.391,1.534,8.059c0.3,1.333,0.622,2.66,0.967,3.982
				c0.154,0.59,1.087,3.305,0.615,3.212c1.202,0.237,4.69-4.515,5.48-5.386c1.792-1.977,3.533-4.001,5.219-6.069
				c3.401-4.17,6.565-8.521,9.527-13.012c0.061-0.092,0.027-0.26-0.08-0.306c-0.12-0.052-0.239-0.104-0.359-0.156
				c-0.18-0.078-0.37,0.05-0.329,0.253c2.083,10.274,2.944,20.705,2.591,31.18c-0.006,0.177,0.197,0.279,0.343,0.197
				c4.463-2.516,7.509-7.76,10.513-11.759c1.978-2.633,3.927-5.287,5.849-7.962c1.012-1.409,2.016-2.823,3.012-4.243
				c0.743-1.059,1.894-2.251,2.231-3.523c0.034-0.127-0.042-0.245-0.162-0.286c-0.068-0.023-0.137-0.047-0.205-0.07
				c-0.094-0.032-0.215,0.021-0.263,0.107c-0.029,0.053-0.058,0.105-0.087,0.158c-0.103,0.187,0.12,0.466,0.318,0.318
				c0.965-0.718,0.77,0.396,1,1.364c0.335,1.41,0.694,2.816,1.035,4.225c0.724,2.996,1.428,5.996,2.113,9.001
				c1.33,5.836,2.582,11.689,3.768,17.555c0.031,0.151,0.224,0.215,0.348,0.142c1.79-1.06,3.112-3.863,4.358-5.522
				c2.075-2.763,4.15-5.526,6.226-8.289c3.728-4.964,8.207-9.865,10.407-15.748c0.083-0.222-0.253-0.419-0.404-0.235
				c-0.183,0.221-0.366,0.442-0.548,0.663c-0.076,0.092-0.086,0.187-0.038,0.293c4.449,9.821,7.358,20.201,8.698,30.898
				c0.021,0.165,0.2,0.333,0.371,0.213c1.358-0.959,2.139-2.817,3.064-4.177c1.592-2.341,3.229-4.651,4.91-6.93
				c3.633-4.925,7.477-9.696,11.513-14.296c0.536-0.611,1.794-2.651,2.56-2.854c0.582-0.154,0.693,0.626,1.022,1.344
				c0.364,0.795,0.699,1.603,1.041,2.407c1.294,3.04,2.52,6.109,3.681,9.203c2.158,5.75,4.072,11.585,5.78,17.485
				c0.067,0.233,0.418,0.242,0.481,0c0.345-1.329,1.997-2.188,2.934-3.179c1.845-1.952,3.542-4.065,5.287-6.106
				c3.385-3.959,6.727-7.956,9.912-12.079c1.289-1.669,2.553-3.357,3.781-5.071c0.302-0.422,0.994-1.178,1.207-1.707
				c0.011-0.141,0.022-0.283,0.032-0.424c0.078-0.551,0.045-0.565-0.1-0.041c1.525-0.259,2.526,2.019,3.217,3.019
				c2.708,3.918,5.287,7.995,7.581,12.17c1.22,2.221,2.349,4.498,3.297,6.849c0.477,1.182,0.912,2.384,1.292,3.601
				c0.268,0.86,0.405,3.175,0.976,3.717c1.409,1.337,4.049-2.839,4.886-3.865c1.396-1.713,2.739-3.47,4.025-5.267
				c2.743-3.832,5.23-7.849,7.442-12.01c1.037-1.951,2.014-3.934,2.929-5.945c0.342-0.752,0.653-2.009,1.17-2.667
				c0.466-0.593,0.166-0.721,0.746-0.483c0.505,0.207,0.888,1.364,1.158,1.858c5.163,9.451,6.247,20.481,10.241,30.395
				c0.086,0.214,0.329,0.243,0.467,0.061c1.19-1.574,2.853-2.721,4.329-4.022c1.887-1.662,3.722-3.383,5.503-5.157
				c3.356-3.343,6.52-6.879,9.475-10.581c2.993-3.748,5.713-7.676,8.314-11.703c0.394-0.61,0.67-1.459,1.397-1.698
				c0.988-0.325,2.155,1.354,2.764,2.081c1.793,2.138,3.272,4.592,4.833,6.9c2.816,4.161,5.58,8.361,8.111,12.703
				c1.455,2.496,3.14,5.111,4.143,7.829c0.911,2.468,0.25,1.155,0.622,0.146c0.458-1.241,1.548-2.46,2.263-3.57
				c2.804-4.356,5.503-8.779,8.095-13.264c1.385-2.397,2.739-4.811,4.062-7.242c1.177-2.163,2.175-5.119,3.869-6.907
				c0.107-0.113,0.104-0.334-0.053-0.409c2.078,0.988,4.233,3.6,5.678,5.365c2.095,2.558,3.672,5.449,4.843,8.533
				c0.886,2.334,1.596,4.729,2.751,6.952c1.435,2.761,3.307,5.199,4.244,8.207c0.07,0.226,0.35,0.245,0.478,0.062
				c3.226-4.607,5.289-9.614,7.669-14.677c1.408-2.996,3.01-5.849,5.154-8.389c2.241-2.655,4.848-4.956,6.957-7.73
				c0.229-0.301,1.246-2.171,1.545-2.282c0.998-0.372,4.442,2.656,5.032,3.163c2.503,2.146,4.701,4.731,6.67,7.366
				c4.108,5.496,7.145,11.678,9.165,18.227c0.026,0.085,0.094,0.166,0.185,0.185c0.081,0.017,0.161,0.034,0.242,0.051
				c0.109,0.023,0.245-0.014,0.299-0.122c2.946-5.903,5.902-11.813,9.317-17.463c3.347-5.539,7.276-11.944,12.389-16.046
				c0.072-0.212,0.143-0.424,0.215-0.636c0.497-0.096,0.951-0.015,1.361,0.243c0.732,0.234,1.441,0.677,2.134,1.017
				c1.415,0.694,2.819,1.415,4.177,2.217c3.21,1.895,5.966,4.283,8.546,6.957c2.477,2.566,4.88,5.207,7.24,7.881
				c1.132,1.282,2.253,2.574,3.361,3.877c0.833,0.978,1.505,2.139,2.673,2.71c0.16,0.078,0.337,0.013,0.394-0.16
				c2.153-6.599,4.718-13.052,7.75-19.298c1.442-2.969,2.983-5.889,4.619-8.755c0.816-1.43,1.662-2.842,2.522-4.245
				c0.75-1.224,0.678-1.36,1.924-1.27c3.278,0.235,6.359,4.268,8.332,6.597c2.109,2.491,3.983,5.178,5.608,8.008
				c1.54,2.682,2.666,5.554,4.128,8.272c0.742,1.381,1.535,3.219,3.138,3.648c0.15,0.04,0.289-0.051,0.337-0.192
				c2.263-6.541,5.094-12.862,8.541-18.866c1.56-2.717,3.241-5.366,5.036-7.933c0.741-1.06,5.406-8.297,6.503-7.717
				c0.157,0.083,0.368,0.015,0.414-0.168c0.312-1.243,4.467,1.323,5.033,1.712c1.315,0.906,2.538,1.945,3.68,3.058
				c2.318,2.257,4.291,4.83,6.118,7.492c1.719,2.506,3.308,5.098,4.976,7.637c0.825,1.255,1.533,3.545,3.222,3.445
				c0.118-0.007,0.254-0.084,0.278-0.212c1.294-6.907,2.976-13.732,5.107-20.429c1.298-4.079,3.382-12.993,8.641-13.735
				c1.194-0.168,2.215,0.646,3.318,1.231c1.554,0.824,3.115,1.636,4.662,2.474c2.91,1.577,5.517,3.395,7.741,5.861
				c3.775,4.185,6.476,9.205,10.308,13.351c0.066,0.071,0.2,0.116,0.294,0.078c0.291-0.119,0.583-0.238,0.874-0.357
				c0.129-0.053,0.217-0.146,0.222-0.291c0.402-11.701,2.996-23.158,7.743-33.863c0.158-0.357-0.31-0.65-0.532-0.311
				c-0.062,0.095-0.125,0.19-0.187,0.285c0.192,0.052,0.383,0.104,0.575,0.156c0.01,0.083,3.585,1.913,3.951,2.135
				c1.177,0.716,2.357,1.427,3.532,2.147c2.141,1.314,4.282,2.649,6.211,4.267c3.928,3.294,7.005,7.688,10.272,11.607
				c0.111,0.133,0.329,0.108,0.444,0c1.573-1.473,1.686-4.311,2.38-6.316c1.256-3.628,2.811-7.144,4.416-10.629
				c2.851-6.191,5.821-12.308,7.856-18.83c0.115-0.37-0.464-0.528-0.579-0.16c-1.92,6.153-4.716,11.954-7.419,17.79
				c-1.231,2.657-2.442,5.325-3.529,8.045c-0.537,1.345-1.044,2.701-1.508,4.073c-0.44,1.302-0.677,3.512-1.417,4.649
				c-0.5,0.769-0.063,0.663-0.676,0.448c-0.437-0.153-1.178-1.498-1.555-1.949c-1.128-1.352-2.254-2.707-3.385-4.057
				c-1.851-2.208-3.744-4.297-6.045-6.048c-2.457-1.871-5.144-3.42-7.78-5.021c-1.279-0.777-3.977-3.361-5.592-2.711
				c-0.115,0.046-0.243,0.155-0.226,0.297c0.01,0.087,0.021,0.174,0.031,0.262c0.036,0.297,0.396,0.428,0.575,0.156
				c0.062-0.095,0.125-0.19,0.187-0.285c-0.177-0.104-0.355-0.207-0.532-0.311c-4.508,10.177-7.134,21.045-7.734,32.162
				c-0.061,1.128,0.289,2.376-1.008,1.541c-1.004-0.647-1.914-2.285-2.608-3.212c-1.526-2.039-2.933-4.163-4.457-6.203
				c-2.83-3.789-5.951-6.761-10.114-9.034c-1.214-0.663-2.443-1.301-3.665-1.949c-1.006-0.533-3.099-2.19-4.277-2.266
				c-0.731-0.047-1.789,0.424-2.445,0.772c-2.91,1.546-4.575,5.339-5.698,8.249c-2.125,5.504-3.697,11.279-5.071,17.011
				c-0.224,0.933-1.273,8.42-1.925,8.578c-0.871,0.212-4.607-6.637-5.125-7.437c-3.061-4.733-6.304-9.503-10.768-13.038
				c-1.449-1.148-3.958-3.297-5.902-3.358c-0.611-0.019-1.349,0.552-1.604,0.417c-0.104-0.055-0.259-0.053-0.341,0.044
				c-4.268,5.024-8.093,10.402-11.374,16.122c-1.723,3.003-3.302,6.088-4.729,9.242c-0.66,1.46-1.288,2.934-1.884,4.421
				c-0.423,1.054-0.98,4.08-1.747,4.768c-0.827,0.741-2.409-2.442-2.917-3.415c-0.774-1.483-1.416-3.031-2.149-4.534
				c-1.515-3.106-3.315-6.067-5.384-8.835c-3.135-4.194-6.564-8.394-11.832-9.631c-0.12-0.028-0.239,0.02-0.304,0.124
				c-3.523,5.58-6.698,11.368-9.461,17.362c-1.188,2.578-2.302,5.19-3.342,7.831c-0.608,1.544-1.19,3.097-1.747,4.66
				c-0.278,0.782-0.545,1.568-0.816,2.353c-0.105,0.315-0.21,0.63-0.315,0.945c-0.069,0.78-0.301,0.841-0.694,0.181
				c-1.209-0.663-2.215-2.528-3.123-3.578c-1.118-1.294-2.247-2.577-3.388-3.85c-2.253-2.512-4.525-5.021-6.911-7.406
				c-4.411-4.409-9.607-7.204-15.216-9.814c-0.119-0.055-0.302-0.046-0.364,0.096c-0.25,0.57-0.283,0.502,0.055,1.041
				c0.138,0.22,0.496,0.136,0.496-0.134c0-0.125,0-0.249,0-0.374c0-0.235-0.289-0.345-0.455-0.188
				c-4.738,4.493-8.701,9.666-12.159,15.193c-1.83,2.925-3.525,5.932-5.148,8.975c-0.889,1.667-1.755,3.346-2.611,5.031
				c-0.491,0.966-1.427,4.017-2.239,4.56c-0.131,0.592-0.243,0.461-0.335-0.393c-0.097-0.298-0.194-0.596-0.292-0.895
				c-0.296-0.892-0.619-1.776-0.959-2.652c-0.517-1.333-1.085-2.646-1.697-3.938c-1.464-3.091-3.195-6.054-5.176-8.842
				c-3.449-4.855-7.444-9.358-12.889-11.923c-0.135-0.063-0.276-0.033-0.36,0.094c-4.017,6.044-9.755,10.396-13.055,16.965
				c-1.548,3.08-2.803,6.295-4.309,9.395c-0.649,1.336-1.336,2.656-2.114,3.921c-0.408,0.663-0.873,1.687-1.485,2.203
				c-0.704,0.594,0.127,0.618-0.326-0.018c-0.733-1.027-1.132-2.533-1.779-3.637c-0.825-1.409-1.734-2.773-2.46-4.238
				c-1.496-3.019-2.258-6.34-3.737-9.369c-1.262-2.587-2.899-4.995-4.85-7.113c-0.993-1.078-3.526-4.229-5.198-4.118
				c-0.11,0.007-0.226,0.075-0.251,0.191c-0.02,0.093-0.04,0.186-0.061,0.28c-0.023,0.105,0.013,0.243,0.12,0.294
				c-0.273-0.13-8.781,15.525-9.699,17.073c-1.849,3.119-3.75,6.206-5.702,9.261c-1.286,2.013-2.727,3.642-3.102,6.001
				c-0.051,0.323,0.394,0.461,0.499,0.138c0.374-1.156,0.034-1.954-0.481-3.037c-1.08-2.268-2.344-4.468-3.609-6.636
				c-2.279-3.907-4.747-7.7-7.27-11.453c-2.128-3.165-4.126-6.863-6.916-9.513c-1.382-1.312-2.237-1.456-3.304,0.171
				c-4.97,7.574-10.246,14.777-16.556,21.309c-2.948,3.051-6.051,5.953-9.298,8.683c-0.52,0.437-1.041,0.889-1.549,1.331
				c-0.53,0.46-0.264,0.761-0.598,0.478c-0.334-0.282-0.754-2.332-0.951-2.905c-0.402-1.165-0.772-2.341-1.125-3.521
				c-2.635-8.804-4.293-18.005-9.266-25.891c-0.062-0.098-0.174-0.144-0.287-0.117c-0.326,0.079-0.53,0.136-0.776,0.294
				c-0.802,0.517-1.814,4.155-2.298,5.171c-1.491,3.13-3.134,6.187-4.92,9.158c-3.699,6.155-8.032,11.894-12.888,17.181
				c-0.185,0.202,0.058,0.564,0.306,0.397c0.005-0.004,0.011-0.008,0.017-0.011c0.099-0.067,0.139-0.169,0.116-0.285
				c-1.167-5.874-3.554-11.312-6.513-16.493c-2.826-4.948-5.827-10.386-9.77-14.538c-0.097-0.102-0.257-0.09-0.355,0
				c-0.536,0.489-0.491,0.386-0.48,1.134c0.004,0.291,0.402,0.331,0.493,0.067c0.091-0.265,0.183-0.53,0.274-0.795
				c0.098-0.284-0.306-0.415-0.459-0.193c-3.844,5.564-8.038,10.865-12.384,16.044c-2.008,2.392-4.044,4.761-6.083,7.126
				c-1.574,1.825-3.452,3.274-5.048,4.997c-0.062,0.067-0.151,0.719-0.184,0.709c0.214,0.065-0.277-2.119-0.325-2.28
				c-0.453-1.513-0.921-3.023-1.405-4.526c-0.967-3.004-1.995-5.99-3.084-8.952c-1.148-3.122-2.363-6.22-3.646-9.289
				c-0.787-1.884-1.404-4.25-2.708-5.836c-0.083-0.1-0.267-0.092-0.351,0c-5.714,6.276-11.079,12.857-16.041,19.744
				c-1.266,1.757-2.507,3.532-3.72,5.326c-0.56,0.828-1.085,1.685-1.665,2.498c-0.811,1.135-0.674,0.779-0.773-0.273
				c-0.423-4.495-1.533-9.053-2.713-13.399c-1.146-4.223-2.557-8.374-4.224-12.419c-0.328-0.795-0.68-1.58-1.014-2.372
				c-0.12-0.286-0.299-1.032-0.514-1.255c0.067,0.069,1.098-1.749-0.22,0.354c-1.265,2.018-2.37,4.113-3.774,6.059
				c-2.707,3.752-5.546,7.414-8.323,11.114c-1.419,1.891-2.839,3.781-4.258,5.672c-0.655,0.873-1.31,1.745-1.965,2.618
				c-0.436,0.58-0.859,1.178-1.31,1.745c-0.815,1.025-0.421,0.894-0.778,0.064c-0.996-2.315-1.141-5.522-1.672-7.989
				c-0.534-2.482-1.082-4.961-1.643-7.437c-1.242-5.48-2.553-10.945-3.92-16.395c-0.033-0.133-0.221-0.229-0.342-0.139
				c-1.314,0.978-2.139,3.112-3.112,4.496c-1.197,1.703-2.405,3.398-3.625,5.084c-2.437,3.37-4.918,6.706-7.445,10.009
				c-1.321,1.727-2.616,3.513-4.076,5.13c-0.578,0.64-1.18,1.267-1.84,1.824c-1.998,1.687-1.18,1.272-1.54,0.48
				c-0.321-0.705,0.05-2.304,0.054-3.144c0.005-1.048-0.002-2.096-0.022-3.144c-0.043-2.27-0.146-4.539-0.308-6.805
				c-0.275-3.851-0.72-7.689-1.334-11.5c-0.167-1.033-0.345-2.064-0.537-3.093c-0.164-0.88-0.123-2.197-0.88-1.929
				c-0.918,0.325-2.775,4.028-3.372,4.861c-4.95,6.906-10.479,13.365-16.485,19.372c-0.126,0.126-0.038,0.38,0.153,0.369
				c0.246-0.015,0.492-0.029,0.737-0.044c0.137-0.008,0.249-0.132,0.208-0.273c-1.52-5.254-2.727-10.588-3.555-15.996
				c-0.463-3.028-0.813-6.073-1.048-9.126c-0.105-1.366-0.139-2.738-0.248-4.103c0.026-0.607-0.035-1.204-0.184-1.791
				c0.199,0.105,0.398,0.211,0.597,0.316c-0.359,0.774-1.66,2.462-2.263,3.652c-1.191,2.353-2.336,4.738-3.401,7.151
				c-2.013,4.555-3.596,9.241-4.279,14.189C1139.653,1004.603,1139.856,1004.662,1139.876,1004.526L1139.876,1004.526z"/>
		</g>
	</g>
</g>
<g>
	<path fill="#702F0C" d="M1412.968,739.815c10.749-15.355,31.319-46.749,31.319-62.129c0-20.818-16.877-37.695-37.695-37.695
		c-20.818,0-37.695,16.877-37.695,37.695c0,15.38,20.571,46.775,31.32,62.129H1412.968z"/>
	<rect x="1399.508" y="747.364" fill="#702F0C" width="13.677" height="8.901"/>
</g>
<g opacity="0.11">
	<g>
		<path fill="#FFFFFF" d="M642.344,599.996c-20.96-18.894-55.508-20.38-78.013-3.355c11.931-32.422-3.462-70.679-30.764-91.848
			c-27.302-21.169-63.884-27.295-98.285-24.121c-74.437,6.868-143.329,56.882-172.915,125.53
			c-20.809-19.256-53.495-24.414-79.222-12.5c-25.727,11.914-42.936,40.177-41.711,68.502l512.314,15.039
			C668.354,653.1,663.304,618.89,642.344,599.996z"/>
	</g>
	<g>
		<path fill="#FFFFFF" d="M2073.763,571.653c-19.895-11.098-47.225-6.481-62.37,10.538c3.773-57.847-48.954-110.829-106.82-114.321
			c-57.865-3.493-113.47,36.978-135.319,90.674c-33.831-26.523-91.468-11.023-107.433,28.891
			c-10.972-18.167-38.062-20.801-56.608-10.483c-18.547,10.318-29.999,29.81-38.508,49.253l530.858,4.053
			C2104.088,608.431,2093.659,582.751,2073.763,571.653z"/>
	</g>
	<g>
		<path fill="#FFFFFF" d="M1889.243,246.217c-17.031-10.021-40.17-8.384-55.62,3.935c-3.713-49.583-51.873-91.448-101.49-88.225
			c-48.646,3.16-86.568,41.661-119.464,77.636c-13.891-22.754-43.852-32.13-70.078-27.343c-26.226,4.787-48.937,21.35-67.331,40.648
			c-8.153-12.141-27.052-12.355-39.305-4.371c-12.253,7.984-19.449,21.581-26.129,34.591l502.989,13.66
			C1916.079,277.261,1906.273,256.239,1889.243,246.217z"/>
	</g>
	<g>
		<path fill="#FFFFFF" d="M2746.366,268.568c-13.082-3.249-27.083,1.928-37.661,10.283c7.79-23.822-7.246-51.193-29.824-62.072
			c-22.578-10.88-50.093-7.431-72.47,3.856s-40.416,29.552-56.734,48.575c-3.906-16.947-25.848-24.184-42.374-18.767
			c-16.526,5.417-28.604,19.318-39.813,32.615l299.709,15.474C2770.184,285.388,2759.447,271.816,2746.366,268.568z"/>
	</g>
	<g>
		<path fill="#FFFFFF" d="M2520.646,704.347c-2.162-7.368-9.385-13.863-16.925-12.411c-5.677,1.093-11.103,6.31-16.4,3.994
			c-0.036-19.817-2.022-43.258-19.061-53.378c-16.548-9.828-38.212-0.858-52.486,12.052c-12.451,11.261-22.215,25.474-28.26,41.137
			c-10.855-9.642-31.406-1.891-33.19,12.517l165.345,18.857C2521.244,719.6,2522.808,711.715,2520.646,704.347z"/>
	</g>
	<g>
		<path fill="#FFFFFF" d="M732.025,241.152c-18.294-6.876-41.247,4.999-46.203,23.904c-4.871-39.41-13.936-85.059-49.47-102.784
			c-29.271-14.601-65.896-2.889-90.695,18.441c-24.799,21.33-40.95,50.677-59.074,77.906c-1.378,2.071-2.961,4.276-5.35,4.97
			c-5.487,1.593-9.167-5.232-13.149-9.33c-8.634-8.886-24.686-5.158-32.718,4.276c-8.032,9.434-10.191,22.378-12.046,34.629
			l327.724-3.594C759.767,272.082,750.318,248.028,732.025,241.152z"/>
	</g>
</g>
</svg>
