<?xml version="1.0" encoding="utf-8"?>
<!-- Generator: Adobe Illustrator 22.1.0, SVG Export Plug-In . SVG Version: 6.00 Build 0)  -->
<svg version="1.1" id="Layer_1_1_" xmlns="http://www.w3.org/2000/svg" xmlns:xlink="http://www.w3.org/1999/xlink" x="0px" y="0px"
	 viewBox="0 0 2850 1800" enable-background="new 0 0 2850 1800" xml:space="preserve">
<linearGradient id="SVGID_1_" gradientUnits="userSpaceOnUse" x1="116.4391" y1="36.8413" x2="2659.7227" y2="1714.4532">
	<stop  offset="0.0043" style="stop-color:#FEF9B2"/>
	<stop  offset="1" style="stop-color:#F8A9CF"/>
</linearGradient>
<rect fill="url(#SVGID_1_)" width="2850" height="1800"/>
<g>
	<path opacity="0.25" fill="#FFFFFF" d="M780.268,0H0v971.169c106.391,84.715,241.129,135.347,387.698,135.347
		c344.013,0,622.891-278.878,622.891-622.891C1010.588,288.427,920.795,114.209,780.268,0z"/>
	<path opacity="0.25" fill="#FFFFFF" d="M389.026,12.47c-160.654,0-302.545,80.332-387.698,203.018v537.166
		c85.153,122.686,227.043,203.018,387.698,203.018c260.458,0,471.601-211.143,471.601-471.601S649.484,12.47,389.026,12.47z"/>
	<circle opacity="0.25" fill="#FFFFFF" cx="389.026" cy="484.071" r="339.39"/>
	<circle fill="#FFFFFF" cx="389.026" cy="484.072" r="250.24"/>
</g>
<g opacity="0.35">
	<path fill="#FFFFFF" d="M1172.265,1283.72c-298.114-11.199-596.446-16.597-894.77-16.192
		c44.127-29.572,99.574-41.768,152.038-33.443c4.352-21.135,15.779-41.994,34.899-51.995c19.121-10.001,46.339-5.444,57.014,13.309
		c2.759-21.349,8.629-42.306,17.513-61.914c24.45-53.968,76.712-98.274,135.946-99.552s118.271,51.123,112.241,110.063
		c15.869-55.47,33.591-112.225,70.18-156.834c36.589-44.609,96.799-74.657,152.453-59.446c45.118,12.332,78.403,51.31,99.348,93.132
		c30.663,61.228,40.583,132.619,27.773,199.888c13.735-5.088,30.498-0.372,39.566,11.131c9.068,11.503,9.739,28.904,1.584,41.071
		c7.554,0.935,15.434-3.94,17.969-11.117"/>
</g>
<g opacity="0.35">
	<path fill="#FFFFFF" d="M2762.633,1223.928c-176.809-6.642-353.747-9.844-530.68-9.603c26.172-17.539,59.057-24.772,90.172-19.835
		c2.581-12.535,9.358-24.906,20.699-30.838c11.34-5.932,27.483-3.229,33.814,7.893c1.637-12.662,5.118-25.091,10.387-36.721
		c14.501-32.008,45.497-58.285,80.628-59.044s70.146,30.321,66.569,65.277c9.412-32.899,19.923-66.559,41.624-93.017
		c21.7-26.457,57.411-44.279,90.418-35.257c26.759,7.314,46.5,30.432,58.922,55.236c18.186,36.314,24.069,78.655,16.472,118.552
		c8.146-3.018,18.088-0.221,23.466,6.602c5.378,6.822,5.776,17.142,0.939,24.359c4.48,0.555,9.154-2.337,10.657-6.593"/>
</g>
<g opacity="0.35">
	<g>
		<path fill="#FFFFFF" d="M2692.367,343.221c-30.038-9.589-62.659-10.948-93.391-3.89c4.767-23.268-6.611-48.961-27.044-61.069
			c-12.35-7.318-27.464-9.342-41.49-6.414c-2.529-20.332-8.455-40.243-17.63-58.565c-11.999-23.959-31.067-46.289-56.915-53.354
			c-31.883-8.714-66.377,8.5-87.338,34.056c-20.961,25.556-31.114,58.07-40.205,89.848c3.454-33.766-30.367-63.786-64.302-63.054
			c-33.934,0.732-63.875,26.115-77.882,57.032c-5.089,11.233-8.452,23.239-10.033,35.47c-6.115-10.743-21.708-13.354-32.662-7.624
			c-10.954,5.73-17.5,17.679-19.993,29.787c-30.056-4.769-61.821,2.218-87.101,19.159c170.906-0.233,341.816,2.86,512.601,9.276
			c56.017,2.104,112.689,3.714,168.741,4.394C2718.458,355.465,2704.589,347.123,2692.367,343.221z"/>
	</g>
</g>
<g>
	<polygon fill="#C8BADD" points="398.728,1097.13 321.591,1188.806 297.32,1272.129 278.16,1259.701 228.425,1366.027 
		172.797,1316.186 121.783,1464.025 52.811,1589.454 0,1677.52 0,1799.999 412.641,1799.999 442.179,1264.46 	"/>
	<polygon fill="#9982C2" points="278.16,1259.701 281.123,1327.929 274.838,1486.221 297.32,1272.129 	"/>
	<polygon fill="#A28EC7" points="398.728,1097.13 382.912,1179.633 425.519,1300.792 395.139,1452.376 403.886,1549.352 
		371.058,1615.593 412.641,1799.999 831.933,1792.303 681.722,1507.835 461.857,1181.923 449.998,1215.162 	"/>
	<g>
		<polygon fill="#9982C2" points="2850,1492.063 2649.788,1170.539 2519.4,1413.74 2468.16,1352.939 2370.01,1535.34 
			2263.199,1597.983 2185.498,1800 2850,1800 		"/>
		<polygon fill="#DBCFE3" points="2468.16,1352.939 2370.01,1535.34 2263.199,1597.983 2224.423,1705.642 2382.874,1581.367 
			2434.655,1548.774 2478.151,1429.017 2467.795,1394.954 		"/>
		<polygon fill="#DBCFE3" points="2462.633,1800 2609.884,1800 2624.788,1623.362 2610.277,1447.838 2649.788,1352.939 
			2649.788,1170.539 2519.4,1413.74 2532.285,1520.367 2476.6,1577.258 		"/>
	</g>
	<polygon fill="#9982C2" points="461.857,1181.923 449.998,1215.162 521.856,1329.084 563.922,1333.217 	"/>
	<polygon fill="#9982C2" points="172.797,1316.186 188.027,1448.387 228.425,1366.028 	"/>
</g>
<g>
	<polygon fill="#B09DD2" points="2658.201,1799.999 2402.754,1563.504 2247.606,1275.638 2055.073,1213.953 2036.38,1092.451 
		1827.023,903.656 1714.867,886.832 1606.719,572.619 1522.334,430.733 1475.281,260.584 1389.616,428.864 1331.669,400.825 
		1174.652,709.253 1047.542,806.454 905.479,1260.684 654.998,1541.073 278.045,1799.999 	"/>
	<polygon fill="#A189CC" points="1522.334,430.733 1571.83,608.431 1606.719,572.619 	"/>
	<polygon fill="#E4DBE9" points="1475.281,260.584 1331.669,507.373 1412.599,955.478 1492.92,845.39 1510.297,744.771 
		1475.411,686.569 	"/>
	<polygon fill="#C8BADD" points="1331.669,400.825 1410.828,439.433 1455.493,720.044 1407.915,720.044 1465.203,786.07 
		1482.68,871.516 1302.079,1117.172 1174.652,709.253 	"/>
	<polygon fill="#B09DD2" points="1827.023,903.656 1650.247,879.631 1778.456,1288.001 2055.073,1213.953 2036.38,1092.451 	"/>
	<polygon fill="#B09DD2" points="1571.83,800.474 1434.982,879.631 1302.079,1117.172 1039.349,1303.811 1174.652,1546.125 
		1697.374,1490.548 1778.456,1288.001 1650.247,879.631 	"/>
	<polygon fill="#DBCFE3" points="905.479,1260.684 1039.349,1303.811 1174.652,1546.125 919.152,1651.478 654.998,1541.073 	"/>
	<polygon fill="#E4DBE9" points="2247.606,1275.638 2133.457,1327.798 1924.961,1346.752 1778.456,1288.001 2055.073,1213.953 	"/>
	<polygon fill="#9982C2" points="2402.755,1563.504 2201.692,1496.49 2133.457,1327.798 2247.606,1275.638 	"/>
	<polygon fill="#B09DD2" points="2193.53,1799.999 2201.692,1799.999 2201.692,1496.49 2133.457,1327.798 1924.961,1346.752 
		1998.883,1667.078 	"/>
	<polygon fill="#C8BADD" points="1697.374,1490.548 1828.295,1657.601 1998.882,1667.078 1924.961,1346.752 1778.456,1288.001 	"/>
	<g>
		<path fill="#C8BADD" d="M1931.412,1433.911c28.545-0.274,57.077-1.908,85.466-4.894c-24.634,7.259-49.268,14.518-73.902,21.777
			c20.889,3.76,41.901,6.83,62.993,9.205c-4.202-1.089-8.632-0.172-12.875,0.746c-18.593,4.024-37.185,8.048-55.778,12.072"/>
	</g>
	<g>
		<path fill="#C8BADD" d="M1961.592,1551.918c14.551-1.048,29.101-2.096,43.652-3.144c-15.81,8.915-33.166,15.081-51.058,18.137
			c-0.716,0.122-1.58,0.372-1.735,1.082c-0.155,0.709,1.311,1.006,1.146,0.299"/>
	</g>
	<polygon fill="#E4DBE9" points="1827.023,903.656 1788.491,966.392 1650.247,879.631 	"/>
	<polygon fill="#9982C2" points="2036.38,1092.451 1871.413,1198.436 1852.66,1268.137 2055.073,1213.953 	"/>
	<polygon fill="#9982C2" points="1788.491,966.392 1871.413,1198.436 2036.38,1092.451 1827.023,903.656 	"/>
	<g>
		<path fill="#B09DD2" d="M1860.643,1199.159c26.911-9.013,53.946-17.657,81.094-25.927c-18.464,11.42-37.312,22.221-56.499,32.38
			c-6.311,3.341-12.739,6.668-18.003,11.493c-9.259,8.487-13.995,20.695-18.43,32.447"/>
	</g>
	<g>
		<path fill="#B09DD2" d="M1818.845,1075.668c14.763-5.502,29.85-10.138,45.155-13.876c-15.427,9.628-30.136,20.406-43.966,32.214
			c14.177-3.579,28.836-7.183,43.271-4.855c-13.338,7.261-25.939,15.874-37.548,25.664"/>
	</g>
	<polygon fill="#B8A7D2" points="1302.079,1117.172 1369.293,484.072 1410.828,439.433 1455.493,720.044 1407.915,720.044 
		1465.203,786.07 1482.68,871.516 	"/>
	<g>
		<path fill="#C8BADD" d="M1322.654,797.555c14.678,5.736,29.356,11.472,44.035,17.209c-14.46,4.127-28.92,8.254-43.38,12.382
			c20.741,13.284,43.207,23.871,66.654,31.411c-26.578,4.352-53.156,8.705-79.734,13.057"/>
	</g>
	<g>
		<path fill="#C8BADD" d="M1347.816,602.47c11.87,1.957,23.866,3.155,35.888,3.583c-12.189,9.988-25.071,19.129-38.524,27.335"/>
	</g>
	<polygon fill="#E4DBE9" points="1434.982,879.631 1523.12,973.822 1650.247,879.631 1571.83,800.474 	"/>
	<polygon fill="#DBCFE3" points="1302.079,1117.172 1434.982,1231.132 1523.12,973.822 1434.982,879.631 	"/>
	<polygon fill="#A28EC7" points="1697.374,1490.548 1434.982,1231.132 1523.12,973.822 1650.247,879.631 1778.456,1288.001 	"/>
	<g>
		<path fill="#B09DD2" d="M1736.043,1103.721c-20.166,1.113-40.331,2.226-60.497,3.339c20.449,5.776,40.899,11.551,61.348,17.327
			c-9.572,3.774-19.144,7.547-28.717,11.321c15.301,1.084,30.603,2.167,45.904,3.251"/>
	</g>
	<polygon fill="#A38FC4" points="1530.411,1799.999 1358.213,1400.303 1174.652,1546.124 1525.118,1799.999 	"/>
	<g>
		<path fill="#A38FC4" d="M1379.415,1482.279c17.275,2.535,34.551,5.07,51.826,7.606c1.578,0.232,3.223,0.489,4.52,1.419
			c-16.616,1.806-33.181,4.087-49.667,6.842"/>
	</g>
	<g>
		<path fill="#A38FC4" d="M1412.98,1542.995c11.38,2.141,22.902,3.529,34.465,4.151c-8.248,1.926-16.496,3.852-24.744,5.778
			c15.857,6.102,34.29,1.306,50.21,7.244c-19.578-0.292-39.201,2.725-57.788,8.883"/>
	</g>
	<polygon fill="#E4DBE9" points="1434.982,1231.132 1358.213,1400.303 1174.652,1546.125 1039.349,1303.811 1302.079,1117.172 	"/>
	<polyline fill="#DBCFE3" points="1492.92,1029.358 1499.83,1041.813 1555.072,1044.893 1492.92,1061.988 1513.843,1072.379 
		1485.443,1083.816 1461.069,1154.974 1480.382,1154.974 1456.05,1169.626 1475.005,1180.294 1452.396,1180.294 	"/>
	<polygon fill="#E4DBE9" points="1047.542,806.454 1147.235,837.28 1203.148,800.474 1174.652,709.253 	"/>
	<polygon fill="#C1B1D7" points="1302.079,1117.172 1203.148,800.474 1147.235,837.28 1039.349,1303.811 	"/>
	<g>
		<path fill="#DBCFE3" d="M1087.23,1046.401c19.934-1.432,39.777-4.132,59.37-8.078c-22.69,9.534-45.381,19.069-68.071,28.603
			c3.538,1.619,7.598,1.454,11.484,1.259c11.038-0.556,22.077-1.112,33.115-1.668c-18.534,6.199-37.167,12.105-55.888,17.715"/>
	</g>
	<g>
		<path fill="#DBCFE3" d="M1043.543,1217.327c4.039-0.444,8.077-0.888,12.116-1.332c8.641-0.95,17.281-1.9,25.926-2.813
			c-14.458,6.606-28.915,13.211-43.373,19.817"/>
	</g>
	<polygon fill="#E4DBE9" points="1331.669,400.825 1369.293,484.072 1410.828,439.433 	"/>
	<polygon fill="#9982C2" points="1571.83,800.474 1571.83,608.431 1606.719,572.619 1714.867,886.832 1650.247,879.631 	"/>
	<path fill="#E4DBE9" d="M953.01,1799.999c-5.201-27.589-33.858-148.522-33.858-148.522l-264.154-110.405l-376.953,258.927H953.01z"
		/>
	<polygon fill="#9982C2" points="2658.201,1799.999 2402.754,1563.504 2201.692,1496.49 2201.692,1799.999 	"/>
	<g>
		<path fill="#B09DD2" d="M2192.077,1497.548c28.203-10.956,56.406-21.911,84.608-32.867
			c-21.825,12.849-43.649,25.699-65.474,38.548c-2.319,1.365-4.723,2.811-6.182,5.073c-1.65,2.559-1.836,5.759-2.035,8.798
			c-1.115,17.041-4.16,33.955-9.057,50.316c9.477-7.28,18.955-14.559,28.432-21.839c-12.384,19.655-24.109,39.726-35.148,60.167"/>
	</g>
	<polygon opacity="0.5" fill="#8F7FCC" points="1606.719,1562.776 1828.295,1656.872 1827.023,1739.988 1687.933,1765.04 
		1828.295,1776.427 1843.944,1799.999 2658.987,1799.999 2402.754,1562.776 2247.606,1274.91 2055.073,1213.224 2036.38,1091.722 
		1827.023,902.927 1714.867,886.104 1606.719,571.89 1522.334,430.005 1475.281,259.856 1484.428,580.887 1475.411,686.569 
		1510.297,744.771 1492.92,845.39 1434.982,878.903 1523.12,973.093 1434.982,1230.404 	"/>
	<polygon fill="#DBCFE3" points="1047.542,806.454 1147.235,837.28 1039.349,1303.811 905.479,1260.684 	"/>
	<polygon fill="#C1B1D7" points="1039.349,1303.811 919.152,1651.478 1174.652,1546.125 	"/>
	<g>
		<path fill="#DBCFE3" d="M974.311,1457.489c12.706,7.391,26.197,13.432,40.171,17.989c-15.156,0.442-30.312,0.884-45.469,1.327"/>
	</g>
	<g>
		<path fill="#DBCFE3" d="M938.007,1560.869c-0.676,0.809,0.773,1.688,1.825,1.76c9.893,0.68,19.787,1.359,29.68,2.039
			c-12.182,3.62-24.528,6.687-36.987,9.19c9.104,1.374,17.999,4.118,26.294,8.113c-10.359,1.912-20.717,3.824-31.076,5.736"/>
	</g>
	<polygon fill="#C1B1D7" points="952.495,1799.999 919.152,1651.478 521.019,1799.999 	"/>
	<polygon fill="#DBCFE3" points="1525.118,1799.999 1174.652,1546.124 919.152,1651.478 952.495,1799.999 	"/>
</g>
<g opacity="0.35">
	<path fill="#FFFFFF" d="M1880.052,1582.894c-16.974-24.447-37.449-48.677-65.658-58.165c-28.209-9.488-65.302,2.121-73.9,30.614
		c-3.505-17.648-17.447-33.86-35.287-36.2c-17.84-2.339-37.077,12.833-35.711,30.774
		c-30.498-95.376-126.339-165.828-226.469-166.478c-14.656-0.095-29.657,1.244-43.003,7.301
		c-20.052,9.101-34.056,27.719-45.181,46.723c-20.161,34.436-33.804,72.672-39.996,112.093
		c-23.096-12.862-46.614-25.887-72.441-31.53c-11.558-2.525-24.89-3.11-33.918,4.536c-16.297,13.799-5.957,40.477,7.308,57.211
		c-109.097-2.748-218.39,2.319-326.764,15.148l1167.756,14.625C2006.519,1573.509,1938.713,1563.284,1880.052,1582.894z"/>
</g>
<g opacity="0.35">
	<path fill="#FFFFFF" d="M2325.735,742.55c-22.88-42.751-50.288-85.027-87.186-101.046c-36.898-16.019-84.547,5.479-94.659,56.057
		c-5.179-31.093-23.832-59.373-47.035-63.034s-47.584,23.66-45.165,55.328c-42.967-167.733-169.71-289.692-299.491-288.188
		c-18.995,0.22-38.387,2.984-55.462,14.041c-25.656,16.613-43.131,49.886-56.862,83.762
		c-24.882,61.387-41.181,129.317-47.781,199.141c-30.394-22.117-61.342-44.511-95.014-53.798
		c-15.069-4.156-32.366-4.836-43.791,8.914c-20.62,24.817-6.258,71.685,11.537,100.905c-141.476-1.965-282.923,9.883-422.9,35.425
		l1513.8-5.092C2489.281,722.615,2401.044,706.342,2325.735,742.55z"/>
</g>
<g opacity="0.35">
	<path fill="#FFFFFF" d="M2850,1635.852c-10.141,9.299-17.817,21.294-21.852,34.454c-24.921-74.927-55.103-155.688-122.654-196.578
		c-46.666-28.248-104.31-32.417-158.517-26.307c-121.329,13.675-232.414,74.02-333.369,142.693
		c-32.836,22.336-66.268,47.161-83.571,82.906c-70.934-38.567-169.968-11.959-212.021,56.965
		c-55.95-36.313-126.352-49.636-191.702-36.278c-64.436,13.171-123.193,52.14-160.497,106.292H2850V1635.852z"/>
</g>
<g opacity="0.35">
	<path fill="#FFFFFF" d="M1146.911,1800c-10.358-9.016-23.988-14.858-37.67-17.026c-23.157-3.669-46.717,1.229-69.65,6.105
		c-38.992-42.391-99.553-56.331-156.637-63.997c-158.939-21.345-320.232-10.771-480.246-0.159
		c20.8-39.059,17.325-91.672-13.552-123.371s-88.797-34.443-118.418-1.567c8.599-41.26,11.399-83.724,8.29-125.755
		c-2.56-34.621-9.267-69.389-24.585-100.543c-25.477-51.815-75.214-91.047-131.537-103.757
		c-40.903-9.229-84.67-4.323-122.906,12.781V1800H1146.911z"/>
</g>
<g>
	<g>
		<path fill="#9982C2" d="M603.199,644.332c7.239-6.171,16.166-12.765,25.355-10.303c5.082,1.362,12.325,4.019,17.286,10.312
			c0,0,13.422-10,20.73-10.906c7.307-0.906,15.096,1.054,20.569,5.98c-4.964-2.723-11.137-1.604-16.462,0.321
			c-9.856,3.561-18.779,9.668-25.668,17.566c-3.798-6.463-8.132-13.387-15.177-15.949
			C620.979,638.134,611.378,639.658,603.199,644.332"/>
	</g>
	<g>
		<path fill="#9982C2" d="M652.798,680.444c7.239-6.171,16.166-12.765,25.355-10.303c5.082,1.362,12.325,4.019,17.286,10.312
			c0,0,13.422-10,20.73-10.906c7.307-0.906,15.096,1.054,20.569,5.98c-4.964-2.723-11.137-1.604-16.462,0.32
			c-9.856,3.561-18.78,9.668-25.668,17.566c-3.798-6.463-8.132-13.387-15.177-15.948
			C670.577,674.246,660.977,675.769,652.798,680.444"/>
	</g>
	<g>
		<path fill="#9982C2" d="M892.892,782.778c3.176-2.707,7.092-5.6,11.123-4.52c2.23,0.597,5.407,1.763,7.583,4.524
			c0,0,5.888-4.387,9.094-4.784c3.206-0.397,6.622,0.462,9.023,2.624c-2.178-1.195-4.886-0.703-7.222,0.141
			c-4.324,1.562-8.239,4.242-11.261,7.706c-1.666-2.835-3.567-5.873-6.658-6.997C900.692,780.059,896.48,780.727,892.892,782.778"/>
	</g>
	<g>
		<path fill="#9982C2" d="M511.206,737.718c-3.336-24.556,21.695-26.905,26.655-20.612c0,0,16.318-15.555,33,16.474
			c-18.017-13.079-26.943-11.411-33.831-3.514C533.232,723.604,523.217,719.568,511.206,737.718"/>
	</g>
	<g>
		<path fill="#9982C2" d="M821.684,668.638c-3.336-24.556,21.869-23.255,26.829-16.962c0,0,16.144-19.204,32.826,12.825
			c-18.017-13.079-26.943-11.411-33.831-3.514C843.71,654.525,833.695,650.488,821.684,668.638"/>
	</g>
	<g>
		<path fill="#9982C2" d="M765.814,752.004c-0.409-15.471,15.151-12.957,17.804-8.715c0,0,11.322-10.83,19.511,10.184
			c-10.3-9.339-15.954-8.908-20.765-4.471C780.443,744.733,774.499,741.549,765.814,752.004"/>
	</g>
	<g>
		<path fill="#9982C2" d="M449.998,631.321c7.486-1.524,16.322-2.689,21.823,2.612c3.043,2.932,7.1,7.614,8.141,13.965
			c0,0,13.319-1.812,18.807,0.391c5.488,2.203,10.2,6.607,12.132,12.196c-2.43-3.843-7.204-5.455-11.694-6.172
			c-8.311-1.327-16.956-0.503-24.866,2.37c-0.158-6.018-0.513-12.568-4.469-17.107C464.902,633.874,457.563,631.214,449.998,631.321
			"/>
	</g>
	<g>
		<path fill="#9982C2" d="M897.822,711.983c3.481-3.822,7.844-7.987,12.966-7.288c2.833,0.387,6.92,1.324,10.025,4.378
			c0,0,6.553-6.309,10.431-7.297s8.211-0.463,11.498,1.818c-2.862-1.129-6.114-0.103-8.854,1.298
			c-5.07,2.594-9.464,6.496-12.638,11.225c-2.49-3.225-5.299-6.662-9.273-7.561C906.984,707.426,901.912,708.904,897.822,711.983"/>
	</g>
</g>
</svg>
