<svg id="Capa_1" enable-background="new 0 0 512 512" height="512" viewBox="0 0 512 512" width="512" xmlns="http://www.w3.org/2000/svg"><g><path d="m509.653 23.063c3.781-5.935 2.921-13.693-2.051-18.665s-12.73-5.832-18.665-2.051l-110.398 71.299 6.72 27.933 12.581 12.581 11.534 11.534 28.98 7.767z" fill="#ff73b9"/><path d="m438.354 133.461 71.299-110.398c3.781-5.935 2.921-13.693-2.051-18.665l-109.762 109.762 11.534 11.534z" fill="#f25588"/><path d="m438.354 133.461-29.907-29.908-29.908-29.907-128.754 83.378 6.799 28.012 35.19 35.19 29.908 29.907 33.294 12.082z" fill="#ffdf40"/><path d="m354.976 262.215 83.378-128.754-29.907-29.908-116.673 116.673 29.908 29.907z" fill="#ffbe40"/><path d="m354.976 262.215-52.595-52.596-52.596-52.595-128.754 83.378 12.082 33.295 52.595 52.595 52.595 52.595 33.295 12.082z" fill="#a7ffff"/><path d="m271.598 390.969 83.378-128.754-52.595-52.596-116.673 116.673 52.595 52.595z" fill="#80e9ff"/><path d="m271.598 390.969-75.283-75.283-75.283-75.283-114.088 74.231c-3.832 2.444-6.349 6.494-6.857 11.021-.487 4.526 1.088 9.022 4.309 12.243l84.853 84.853 84.853 84.853c3.221 3.221 7.717 4.796 12.243 4.309 4.526-.508 8.576-3.025 11.021-6.857z" fill="#c68cff"/><path d="m186.345 511.913c4.526-.508 8.576-3.025 11.021-6.857l74.232-114.087-75.283-75.283-107.066 107.065 84.853 84.853c3.221 3.221 7.716 4.796 12.243 4.309z" fill="#aa80ff"/></g></svg>